<?xml version="1.0" encoding="UTF-8"?>
<svg id="Layer_1" data-name="Layer 1" xmlns="http://www.w3.org/2000/svg" viewBox="0 0 1473.69 1317.22">
  <defs>
    <style>
      .cls-1 {
        fill: #fff;
      }

      .cls-2 {
        fill: #fbc344;
      }

      .cls-3 {
        fill: #f4b184;
      }

      .cls-4 {
        fill: #f7f0e3;
      }

      .cls-5 {
        fill: #132249;
      }

      .cls-6 {
        fill: #1f2d51;
      }

      .cls-7 {
        fill: #3b6cea;
      }

      .cls-8 {
        fill: #fcfaf6;
      }

      .cls-9 {
        fill: #9db5f3;
      }

      .cls-10 {
        fill: #eee5d6;
      }

      .cls-11 {
        fill: #fbc343;
      }

      .cls-12 {
        fill: #e49c32;
      }

      .cls-13 {
        fill: #d3dfff;
      }

      .cls-14 {
        fill: #d3dffe;
      }

      .cls-15 {
        fill: #f7f0e2;
      }
    </style>
  </defs>
  <path class="cls-1" d="M746.62,646.99l.02-.03c-3.37-.36-6.25,1.06-9.03,2.63-3.05,1.72-6.01,3.58-9,5.4-20.96,12.79-40.83,27.01-58.32,44.36-9.52,9.44-18.97,18.95-28.44,28.44-1.8,1.81-3.94,3.43-5.24,5.56-4.35,7.14-10.92,12.36-15.83,19.06-6.36,8.7-14.03,16.43-20.58,25.01-12.33,16.15-24.11,32.72-36.46,48.86-4.59,5.99-8.2,13.03-15.29,16.81-2.38-.86-4.81-1.63-7.14-2.61-12.05-5.07-24.26-9.71-36.79-13.48-2.44-.74-4.8-1.79-7.44-1.33-.94-1.42-2.19-2.21-3.96-1.95-15.54-4.27-31.16-8.16-47.2-10.12-.1-6.89-.21-13.78-.31-20.66,5.39-.87,10.53-2.48,15.35-5.07,8.29-4.46,13.95-11.25,16.38-20.25,1.82-6.74,3.01-13.76,2.13-20.82-1.7-13.61-4.05-27.09-10.07-39.61,.9-2.41-.87-3.48-2.35-4.71l-1.18-7.07c6.23-3.13,10.99-7.52,12.86-14.54,1.94-7.29,2-14.48-.85-21.54-4.53-11.19-14.45-16.4-26.21-13.69-4.04,.93-8.07,2.23-11.44,4.67-3.44,2.49-6.99,2.71-10.87,1.87-7.86-1.72-15.85-1.76-23.79-1.2-18.59,1.32-34.6,8.03-46.34,23.18-.97,1.25-2.13,2.36-3.2,3.53-1.62,0-3.24,0-4.86,.01,1.7-2.93,3.55-5.8,5.06-8.82,1.36-2.71-.39-5.05-3.48-4.56-3.02,.48-5.95,1.48-8.92,2.25-.29-.3-.58-.6-.88-.89,.77-3.07,1.73-6.11,2.26-9.22,.55-3.23-2.06-5.6-5.26-4.96-2.48,.5-4.91,1.25-7.37,1.89-.34-.35-.69-.69-1.04-1.02-1.7-4.97-2.18-5.44-5.45-4.23-2.67,.99-5.2,2.35-7.78,3.58-1.62,.78-2.67,.61-3.97-.99-3.33-4.08-4.47-4.33-8.64-1.85-3.54,2.11-7.01,4.46-10.15,7.14-17.95,15.3-35.8,30.71-53.63,46.15-2.15,1.86-3.92,4.15-5.86,6.24-2.61,.49-4.5,2.24-6.49,3.77-10.03,7.69-20.01,15.44-30.01,23.16-2.39,1.34-5.06,2.33-6.2,5.18-23.01,18.49-44.49,38.68-65.5,59.37-1.32,1.3-2.26,2.99-3.38,4.49l.18-.08c-1.13,.2-1.81,.81-1.8,2.02-2.46,.03-3.49,1.63-4.09,3.71-3.83,2.45-6.51,6.1-9.6,9.3-8.04,8.33-15.12,17.4-19.89,28.02-11.13,24.78-11.78,49.4,1.59,73.69,.61,1.11,1.06,2.3,1.58,3.46-.57,4.9-3.9,7.84-7.7,10.15-3.59,2.18-6.4,5.15-9.08,8.18-3.73,4.21-7.03,8.8-10.52,13.22v1.97c-1.64,.11-3.29,.35-4.3,1.74-5.62,7.7-11.5,15.24-16.71,23.21-7.5,11.5-13.45,23.91-19.15,36.37-4.09,8.94-7.42,18.22-10.01,27.8-2.58,9.51-5.57,18.92-6.63,28.71-.88,8.19-3.23,16.22-2.75,24.58,.19,3.18,.18,6.39,0,9.58-1.01,17.58,.62,35.05,4.18,52.16,5.47,26.31,14.54,51.46,28.24,74.73,3.22,5.46,7.11,10.52,10.34,15.98,5.38,9.08,11.43,17.6,18.97,25.04,1.81,1.79,3.62,3.64,5.07,5.71,4.07,5.8,9.07,10.54,14.77,14.76,4.84,3.59,9.3,7.75,12.57,12.96-3.18,.16-6.36,.45-9.55,.45-26.54,.04-53.09,.02-79.63,.03-2.56,0-5.12,0-7.67,.13-2.07,.11-3.11,1.33-2.84,3.01,.24,1.49,1.2,2.15,2.59,2.18,3.2,.06,6.39,.07,9.59,.07,483.21,0,966.42,0,1449.62,0,2.56,0,5.12,.04,7.67-.02,.94-.02,1.96-.08,2.8-.45,.85-.37,1.65-1.19,1.28-2.25-.29-.81-.91-2.03-1.51-2.1-2.82-.37-5.69-.54-8.54-.55-33.26-.03-66.52,0-99.78-.04-3.5,0-7-.34-10.49-.52,3.72-4.68,7.28-9.36,11.74-13.55,6.19-5.82,11.24-12.95,16.28-19.88,11.42-15.71,22.57-31.63,31.39-49.01,1.25-2.46,4.61-4.36,3.35-7.52-1.57-3.98-5.66-1.57-8.5-2.51-.6-.2-1.22-.38-1.84-.5-8.4-1.65-16.73-3.85-25.21-4.8-12.03-1.35-23.81-4.07-35.52-6.72-20.43-4.62-41-8.46-61.57-12.3-4.63-.86-9.3-2.23-14.08-2.28-9.55-.09-18.88-3.05-28.51-2.06-1.22,.13-2.6-.12-3.74-.6-3.37-1.41-6.89-1.21-10.39-1.21-9.23,.01-18.37,.62-27.58,1.6-11.7,1.25-23.26,2.68-34.75,5.26-6.2,1.39-11.95,4.54-18.45,4.66,.05-.64,.09-1.27,.14-1.91,4.84-2.6,10.27-3.29,15.42-4.89,12.21-3.81,24.91-5.31,37.47-6.32,14.6-1.18,29.38-.29,44.08-.22,1.56,0,3.11,.6,4.68,.86,2.19,.36,4.38,.73,6.59,.95,7.9,.77,15.86,1.08,23.69,2.3,10.96,1.71,21.98,3.47,32.74,5.94,13.93,3.2,28.06,5.38,41.9,8.96,5.53,1.43,11.11,2.73,16.74,3.69,13.13,2.23,26.32,4.11,39.45,6.34,10.89,1.85,11.08,2.06,15.5-8.11,6.6-15.19,12.95-30.47,17.72-46.39,7.32-24.44,13.2-49.09,13.05-74.81-.02-2.56,.13-5.06,.98-7.55,1.47-4.34,1.63-9.01,.39-13.23-1.49-5.07-1.25-10.09-1.38-15.17-.09-3.51,.28-7.09-.25-10.53-1.76-11.28-3.56-22.57-5.98-33.71-.7-3.22-.49-7.1-3.37-9.69-.64-1.27-1.28-2.54-1.91-3.81,.2-4.17-.39-8.15-1.78-12.17-6.81-19.57-14.66-38.68-25.84-56.2-7-10.97-14.21-21.86-23.21-31.34-7.24-7.63-14.71-15.06-22.33-22.31-4.36-4.15-9.13-7.88-13.9-11.57-1.98-1.53-4.33-2.72-7.02-2.74-.64-.64-1.28-1.27-1.92-1.91-1.29-2.71-3.5-4.4-6.04-5.9-12.62-7.47-25.61-14.16-39.25-19.63-15.73-6.31-32.17-10.12-48.79-12.48-8.7-1.24-17.52-3.44-26.52-2.37-1.54,.18-3.3,.09-4.71-.48-4-1.63-8.14-1.33-12.27-1.36-7.02-.04-14.04,0-21.06-.04-2.23-.02-4.65,.3-6.64-.45-4.67-1.77-9.43-1.33-14.19-1.41-3.83-.06-7.66-.04-11.49-.04-1.99,0-3.8-.39-5.01-2.17,.6-1.47,1.08-2.99,1.81-4.39,12.52-23.89,27.87-45.88,45.26-66.43,17.56-20.76,36.6-40.16,55.62-59.57,24.17-24.66,48.04-49.6,71.36-75.06,22.3-24.35,42.41-50.41,59.02-78.97,25.98-44.67,44.56-91.81,48.08-144.13,1.42-21.17,.97-42.18-1.44-63.15-2.73-23.83-7.87-47.23-14.74-70.24-15.03-50.3-42.56-92.86-81.5-127.67-41.47-37.08-90.28-61.04-143.61-76.08-21.87-6.17-44.21-10.12-66.74-12.79-10.75-1.27-21.52-3.26-32.45-2.45-1.57-.27-3.14-.66-4.72-.78-7.65-.61-15.3-1.06-22.94-1.73-10.82-.94-21.61-2.61-32.44-2.94-39.64-1.21-79.27-1.63-118.81,2.95-22.23,2.58-44.35,5.59-66.33,9.8-50.7,9.73-100.09,23.73-147.44,44.51-21.41,9.39-42.12,20.13-61.98,32.49-5.25,3.27-5.56,4.27-3.57,10.17,.41,1.21,.94,2.38,1.39,3.58,15.83,42.53,31.66,85.07,47.49,127.61,7.8,20.97,15.6,41.94,23.39,62.91,.77,2.08,1.21,4.4,3.89,4.96,.82,.48,1.59,1.15,2.47,1.41,11.63,3.43,23.37,6.5,34.87,10.3,6.22,2.06,11.37,1.54,17.22-1.54,22.32-11.75,45.28-22.14,68.65-31.66,49.78-20.27,101.22-32.87,155.12-34.99,12.75-.5,25.48-.58,38.23-.85,3.3,1.14,6.78,1.92,9.86,3.48,24.48,12.31,41.73,31.3,51.27,56.99,6.97,18.77,6.81,38.19,3.59,57.65-4.44,26.86-16.31,50.21-33.95,70.79-25.38,29.62-52.03,58.04-79.56,85.68-14.2,14.26-27.88,29.04-41.59,43.78-6.52,7.01-12.73,14.33-18.78,21.76-7.66,9.39-15.02,19.04-22.51,28.57-4.54-.19-8.65-2-12.81-3.52-10.82-3.94-22.17-5.69-33.48-6.17-11.66-.49-23.35-.37-35.13,1.28-14.57,2.04-28.6,5.57-42.32,10.44-7.4,2.63-15.11,5.08-20.78,11.11-.66,0-1.31-.02-1.97-.03-.65,.64-1.29,1.28-1.94,1.92Zm-458.28-124.82c5.77,0,10.9,.22,16-.08,3.14-.19,6.21-1.38,9.36-1.74,5.84-.67,10.89-3.49,16.26-5.48,18.66-6.93,32.59-19.96,44.28-35.36,8.14-10.72,13.68-23.04,16.39-36.39,.7-3.42,.7-7.01,1.62-10.35,2.08-7.59,1.89-15.41,.73-22.84-2.41-15.43-6.77-30.27-15.06-43.96-11.18-18.46-26.76-31.71-46.08-40.25-13.7-6.06-28.39-9.38-43.68-8.97-4.52,.12-8.83,1.32-13.21,1.69-16.13,1.38-30.23,7.93-43.2,16.85-11.63,8-21.12,18.31-28.9,30.25-9.87,15.15-15.01,31.54-14.9,49.61,.03,5.12,.01,10.23,.03,15.35,.01,3.51,.67,6.91,1.29,10.38,1.83,10.22,6.05,19.4,10.63,28.56,7.79,15.57,19.3,28.05,33.87,36.92,16.74,10.18,34.78,17.71,54.58,15.8Zm414.02,12.55c1.78-12.15-1.69-24.75-6.5-36.99-4.14-10.52-10.9-19.26-18.95-27.31-8.18-8.19-17.52-13.83-28.6-16.4-5.22-1.21-10.54-3.63-15.89-2.62-6.22,1.17-12.73,1.03-18.68,3.5-13.3,5.52-26.37,11.38-36.34,22.4-5.14,5.68-11.42,10.47-15.88,16.6-6.35,8.73-12.64,17.62-17.11,27.6-2.74,6.12-6.2,11.91-8.92,18.04-8.04,18.17-14.01,36.7-13.74,57.08,.14,10.85,2.25,20.94,6.3,30.63,3.97,9.51,10.3,17.48,18.85,23.59,13.33,9.52,28.56,11.5,43.87,9.07,24.14-3.83,45.23-15.27,63.52-31.24,11.99-10.47,22.89-22.14,31.29-35.97,10.63-17.49,18.34-35.7,16.79-57.98ZM182.21,159.38c25.89,0,51.78,0,77.67,0,2.24,0,4.48,.06,6.71-.03,4.93-.2,5.68-.9,5.89-5.47,.1-2.23,.04-4.47,.04-6.71,0-17.9,.02-35.8,0-53.7-.02-11.41-.32-10.9,11.08-10.9,31.32,.02,62.65,.01,93.97,0,2.87,0,5.75-.02,8.62-.22,1.74-.12,3.01-1.21,3.18-3,.23-2.54,.27-5.1,.28-7.65,.02-19.5,0-38.99,.01-58.49,0-11.87,.63-11.35-11.62-11.35-46.03,.01-92.05,.02-138.08-.01-6.04,0-12.08,.41-18.06-1.4-2.64-.8-5.71-.34-8.58-.2-2.87,.14-3.9,1.24-4.08,4.21-.16,2.55-.1,5.11-.11,7.67,0,17.9-.02,35.8,0,53.7,.02,11.43,.43,11.1-10.9,11.1-31.32-.02-62.65,0-93.97,0-2.56,0-5.12-.05-7.67,.1-3.38,.2-4.27,1.21-4.52,4.84-.09,1.27-.06,2.56-.06,3.83,0,21.73-.04,43.47,.02,65.2,.02,8.36,.11,8.46,8.67,8.47,27.17,.05,54.34,.02,81.51,.02Zm197.74,391.27c1.06-7.01-2.2-12.36-7.06-17.56-5.58-5.97-12.15-7.02-19.81-7.22-19.62-.5-30.68,24.19-22.06,36.98,2.16,3.21,4.41,6.2,7.19,8.81,7.54,7.09,16.45,8.01,25.64,4.51,11.34-4.33,17.06-12.79,16.09-25.52Zm13.41,52.12c-.26-5.48-4-9.95-9.42-13.32-3.91-2.43-7.83-2.46-11.73,0-5.07,3.19-9.29,7.31-9.22,13.6,.07,5.85,4.12,9.74,8.74,12.95,7.53,5.24,21.56-.88,21.62-13.23Z"/>
  <path class="cls-11" d="M895.06,631.95c7.49-9.53,14.85-19.18,22.51-28.57,6.05-7.42,12.26-14.75,18.78-21.76,13.71-14.74,27.39-29.52,41.59-43.78,27.52-27.64,54.17-56.06,79.56-85.68,17.64-20.58,29.51-43.93,33.95-70.79,3.22-19.46,3.38-38.87-3.59-57.65-9.54-25.69-26.79-44.67-51.27-56.99-3.09-1.55-6.57-2.34-9.86-3.48-.51-1.31-1.6-1.79-2.86-2.23-17.55-6.12-35.6-9.33-54.19-9.48-9.9-.08-19.82,.4-29.69-.11-9.96-.51-19.61,1.83-29.46,2.38-12.28,.68-24.47,3.33-36.64,5.46-17.22,3.01-34.18,7.22-50.81,12.61-23.34,7.57-46.21,16.3-68.62,26.36-13.99,6.28-27.55,13.34-41.31,20.02-1.1,.53-1.98,1.53-2.96,2.3-2.69-.56-3.12-2.88-3.89-4.96-7.79-20.97-15.59-41.94-23.39-62.91-15.83-42.54-31.66-85.07-47.49-127.61-.45-1.2-.98-2.37-1.39-3.58-1.98-5.91-1.68-6.9,3.57-10.17,19.85-12.36,40.57-23.1,61.98-32.49,47.35-20.77,96.74-34.78,147.44-44.51,21.98-4.22,44.1-7.23,66.33-9.8,39.54-4.58,79.16-4.16,118.81-2.95,10.83,.33,21.62,2,32.44,2.94,7.64,.67,15.3,1.12,22.94,1.73,1.58,.13,3.15,.51,4.72,.78,.78,.52,1.51,1.37,2.36,1.52,9.7,1.69,19.33,3.68,28.98,5.64,22.93,4.68,45.06,11.82,66.19,21.58,24.04,11.1,47.8,22.82,69.25,38.74,10.78,8,21.07,16.51,30.84,25.63,11.44,10.68,20.98,23.07,30.35,35.6,16.21,21.67,28.41,45.32,37.28,70.85,4.51,12.98,7.84,26.26,10.96,39.58,2.97,12.67,6.08,25.38,6.05,38.56,0,.95,.01,1.99,.38,2.84,1.87,4.28,1.4,8.8,1.43,13.25,.06,8.96-.19,17.92,.1,26.87,.49,15.37-1.28,30.51-3.97,45.58-2.29,12.86-5.29,25.62-9.76,37.86-5.14,14.06-11.15,27.83-17.34,41.47-3.82,8.41-8.49,16.46-13.14,24.46-5.28,9.1-10.35,18.42-16.63,26.82-10.09,13.51-20.31,26.93-31.17,39.9-9.03,10.78-19.91,19.82-28.07,31.32-32.57,32.97-65.88,65.21-97.41,99.21-8.47,9.13-16.87,18.25-24.33,28.22-4.01,5.36-8.04,10.69-12.09,16.01-11.25,14.79-20.41,30.89-28.54,47.5-5.72,11.7-10.68,23.82-13.88,36.58-2.56,10.21-4.28,20.58-4.95,31-.76,11.79-.16,23.66-.19,35.5,0,2.9,.25,5.7,1.25,8.48,.88,2.43,.81,5.04,.29,7.58-.27,1.33-1.08,2.42-2.5,2.51-3.18,.21-6.38,.34-9.57,.34-75.18,.02-150.35,.03-225.53,.03-1.22-.63-1.86-1.65-2.05-2.99-1.21-8.5-2.97-16.97-3.53-25.52-1.01-15.26-1.34-30.56-1.88-45.85-.36-10.21,.79-20.36,1.21-30.54,.56-13.43,2.29-26.7,4.92-39.78,7.35-36.58,21.29-70.71,40.08-102.87,5.62-9.62,11.6-19.03,17.42-28.54Z"/>
  <path class="cls-4" d="M1349.45,856.21c2.68,.03,5.04,1.21,7.02,2.74,4.77,3.68,9.54,7.42,13.9,11.57,7.62,7.25,15.08,14.68,22.33,22.31,9,9.48,16.21,20.37,23.21,31.34,11.19,17.52,19.03,36.62,25.84,56.2,1.4,4.02,1.98,8,1.78,12.17-3.93-.55-7.49,1.39-11.24,1.77-12.65,1.27-25.11,3.8-37.45,6.57-24.83,5.57-49.29,12.6-73.31,21.06-1.79,.63-3.55,1.39-5.24,2.23-.26,.13-.18,1.07-.11,1.62,.03,.21,.5,.58,.7,.54,1.85-.41,3.74-.77,5.53-1.38,12.34-4.24,24.72-8.36,37.33-11.76,5.83-1.57,11.51-3.74,17.39-5.05,14.85-3.3,29.71-6.64,44.7-9.21,7.77-1.33,15.57-3.48,23.63-2.58,2.88,2.59,2.67,6.47,3.37,9.69,2.43,11.14,4.22,22.43,5.98,33.71,.54,3.44,.16,7.01,.25,10.53,.13,5.08-.11,10.1,1.38,15.17,1.24,4.22,1.08,8.89-.39,13.23-.85,2.49-.99,4.99-.98,7.55,.15,25.72-5.73,50.37-13.05,74.81-4.76,15.92-11.11,31.2-17.72,46.39-4.42,10.17-4.6,9.95-15.5,8.11-13.13-2.22-26.32-4.1-39.45-6.34-5.63-.96-11.21-2.26-16.74-3.69-13.84-3.58-27.97-5.76-41.9-8.96-10.76-2.47-21.78-4.23-32.74-5.94-7.82-1.22-15.79-1.53-23.69-2.3-2.21-.22-4.4-.59-6.59-.95-1.57-.25-3.12-.85-4.68-.86-14.7-.07-29.47-.95-44.08,.22-12.57,1.01-25.27,2.52-37.47,6.32-5.15,1.61-10.59,2.3-15.42,4.89,.08-8.62,.26-17.23,.23-25.85-.05-17.87-4.35-34.85-12.14-50.79-19.21-39.25-49.98-64.83-92.4-75.7-16.1-4.12-32.57-6.48-49.27-3.02-13.28-2.05-26.62-2.72-40.06-2.37-11.56,.31-22.8,2.33-33.88,5.51-14.87,4.26-28.31,11.51-41.35,19.59-.18-3.81-2.71-5.84-5.69-7.53-5.08-6.49-10.86-12.27-17.35-17.35-3.03-5.5-8.14-8.55-13.43-11.38,.52-5.94-3.47-8.87-7.75-11.6-1.54-.03-2.94-.34-3.76-1.83,.28-1.23,.3-2.87,1.68-3.2,4.3-1.01,8.41-2.9,13-2.68,2.85,.14,5.89,.34,8.57-.43,8.34-2.39,17-1.78,25.47-3.09,7.15-1.11,14.45-2.02,21.7-2.78,5.32-.56,10.74-.86,16.06-1.7,10.94-1.72,21.85-3.68,32.81-5.29,10.66-1.57,21.41-2.56,32.04-4.28,13.76-2.23,27.46-4.8,41.14-7.48,7.47-1.46,14.93-2.9,22.44-4.17,11.87-2,23.61-4.9,35.32-7.75,25.01-6.09,49.87-12.74,74.46-20.39,27.38-8.52,54.07-18.89,80.45-30.09,1.41-.6,2.55-1.81,3.82-2.73,1.62-.17,2.96-.75,3.88-2.24,2.15-3.49,5.61-4.8,9.43-5.44,.78,1.11,1.91,1.85,3.15,1.24,7.25-3.56,14.45-7.23,21.66-10.88,1.57-.79,1.99-2.27,2.13-3.87,.82-1.49,2.22-1.81,3.76-1.84,2.14-.06,4.44,.37,5.84-1.93h0c5.17-1.35,10.25-2.87,13.45-7.68h0c3.96-.65,7.57-1.9,9.61-5.76h0c3.96-.65,7.57-1.9,9.61-5.76h-.01c2.77,0,4.7-1.28,5.77-3.84h0c2.77,0,4.7-1.28,5.77-3.84h0c2.77,0,4.7-1.28,5.77-3.84h0c2.8,.01,4.69-1.34,5.83-3.84l1.84-1.83c1.57-.12,3.03-.45,3.84-2.01Zm-174.71,236.12c-3.41,.78-7.14,1.14-7.68,5.76-4.83-.06-8.88,1.44-11.52,5.76-2.48,.08-3.78,1.34-3.84,3.84-4.84-.07-8.88,1.44-11.52,5.76-.9,.18-1.9,.17-2.65,.6-.71,.4-1.19,1.25-1.66,1.98-.04,.07,.78,1,1.12,.95,.84-.12,1.86-.38,2.38-.96,.54-.62,.58-1.67,.84-2.54,4.83,.06,8.88-1.44,11.52-5.76,2.48-.08,3.78-1.34,3.84-3.84,4.83,.06,8.88-1.44,11.52-5.76,3.43-.76,7.15-1.14,7.68-5.76,.94-.32,1.09-.63,.43-.79-.09-.02-.3,.5-.46,.77Zm77.19-39.55c-3.25-1.68-5.75,.05-8.26,1.28-7.99,3.93-15.94,7.93-23.89,11.93-1.13,.57-2.23,1.23-3.2,2.03-.39,.32-.68,1.2-.52,1.65,.15,.41,1.14,.95,1.46,.8,9.17-4.35,18.33-8.73,27.43-13.25,2.42-1.2,5.25-1.92,6.98-4.44Zm4.35-2.58c3.7,.97,6.6-1.14,9.69-2.48,6.96-3.01,13.9-6.04,20.85-9.07,1.73-.75,3.48-1.46,5.15-2.33,.43-.23,.83-1.05,.78-1.55-.13-1.11-1.15-1.54-2.02-1.17-10.45,4.47-20.89,8.98-31.29,13.57-1.32,.58-3.07,1.01-3.16,3.02Zm44.77-18.27c3.32,.38,8.69-2.44,6.85-3.6-1.4-.88-5.41,.21-7.35,2.04-.17,.16-.17,.62-.08,.89,.08,.26,.38,.44,.58,.66Zm-100.23,46.92c-.36-.41-.7-1.15-1.08-1.17-1.96-.12-3.48,.95-4.72,2.33-.24,.27-.13,1.28,.18,1.56,1.41,1.28,5.27-.63,5.62-2.72Zm-18.92,8.46c-.24,.54-.47,1.08-.71,1.61,.54,.23,1.19,.76,1.58,.61,.39-.15,.51-.99,.75-1.52-.54-.24-1.08-.47-1.62-.7Zm26.39-12.4c.5-.25,1-.5,1.49-.75-.47-.29-.93-.79-1.41-.81-.49-.02-.99,.44-1.49,.69,.47,.29,.93,.58,1.4,.87Z"/>
  <path class="cls-15" d="M1282.17,896.55c-1.54,.03-2.93,.35-3.76,1.84-9.57,3.34-18.56,7.83-26.95,13.51-3.82,.64-7.28,1.95-9.43,5.44-.92,1.49-2.26,2.07-3.88,2.24-1.12-1.56-2.46-1.64-4.14-.83-17.27,8.29-35.22,15.01-53.22,21.4-20.7,7.36-41.74,13.93-62.99,19.48-28.89,7.55-57.84,14.91-87.34,20.04-17.5,3.04-34.93,6.48-52.47,9.41-5.03,.84-10.13,.99-15.09,2.05-11.5,2.45-23.18,3.65-34.78,5.41-6.3,.95-12.78,.92-18.87,2.43-7.18,1.78-14.52,1.67-21.72,2.75-7.77,1.16-15.69,2.31-23.67,2.74-5.91,.32-12.13,.66-17.92,2.13-8.37,2.13-16.39,1.5-24.5-.63-.61-.61-1.23-1.22-1.84-1.84,.23-3.35-.39-6.29-3.85-7.83-.61-.61-1.22-1.23-1.84-1.84-.3-3.59-2.13-5.63-5.84-5.77h0q-.55-6.08-5.77-7.68h0c.2-3.3-.35-6.22-3.85-7.68h0c-.01-2.76-1.29-4.69-3.85-5.76h0c-.01-2.76-1.29-4.69-3.85-5.76h0c-.07-2.49-1.33-3.79-3.85-3.84h0q-.24-4.62-3.85-5.83c-.06-2.07,.34-4.29-1.84-5.67-.17-2.49-1.44-3.84-3.99-3.85-2.18-1.38-1.78-3.6-1.84-5.67-.84-5.26-3.78-9.59-6.42-14.02-.49-.82-2.1-.97-3.19-1.43h.01c-.65-.64-1.29-1.3-1.94-1.95-.78-1.83-2.02-3.51-1.9-5.65-.65-.68-1.29-1.35-1.94-2.03-.78-1.83-2.01-3.51-1.91-5.65,2.11-1.51,1.32-3.19,.41-4.99-9.08-17.97-15.77-36.9-21.56-56.11-4.21-13.96-7.82-28.1-9.82-42.64-.78-5.66-.89-11.47-2.17-16.95-1.26-5.41-1.53-10.72-1.37-16.11,.44-14.3-.66-28.56,1.53-42.92,1.53-10.03,2.86-20.13,5.47-29.88,3.54-13.21,8.12-26.16,14.25-38.46,1.17-2.35,1.93-4.71,1.74-7.34h0q3.58-1.1,3.89-5.72c5.68-6.03,13.39-8.48,20.78-11.11,13.72-4.88,27.75-8.4,42.32-10.44,11.79-1.65,23.47-1.77,35.13-1.28,11.32,.48,22.66,2.22,33.48,6.17,4.16,1.52,8.27,3.33,12.81,3.52-5.82,9.51-11.8,18.92-17.42,28.54-18.79,32.17-32.73,66.29-40.08,102.87-2.63,13.08-4.36,26.35-4.92,39.78-.43,10.18-1.58,20.33-1.21,30.54,.54,15.29,.87,30.59,1.88,45.85,.57,8.55,2.32,17.01,3.53,25.52,.19,1.34,.83,2.36,2.05,2.99,1.12,2.11,3.32,2.95,5.13,4.18,11.34,7.76,22.91,15.21,34.04,23.24,5.73,4.14,11.57,5.78,18.64,5.76,73.53-.2,147.07-.12,220.6-.12,1.92,0,3.84,.04,5.75-.02,5.59-.2,5.97-.64,5.89-6.07-.2-13.42-.42-26.85-.54-40.27-.09-9.91,.28-19.78,2.13-29.58,3.83-20.25,10.92-39.27,21.02-57.2,1.21,1.78,3.02,2.17,5.01,2.17,3.83,0,7.66-.02,11.49,.04,4.76,.08,9.52-.36,14.19,1.41,1.99,.75,4.41,.44,6.64,.45,7.02,.05,14.04,0,21.06,.04,4.13,.02,8.27-.28,12.27,1.36,1.41,.58,3.17,.67,4.71,.48,9-1.07,17.83,1.13,26.52,2.37,16.62,2.36,33.05,6.17,48.79,12.48,13.64,5.47,26.63,12.16,39.25,19.63,2.54,1.5,4.75,3.19,6.04,5.9-1.58,.85-1.91,2.3-1.92,3.92-.61,.61-1.23,1.22-1.85,1.83q-4.7,.23-5.83,3.85h0q-4.65,.23-5.77,3.84h0q-4.65,.23-5.77,3.84h0q-4.65,.23-5.77,3.84h.01c-4.3,.09-8.43,.46-9.61,5.76h0c-2.77-.22-5.28,.51-7.6,2-1.4,.9-1.85,2.23-2,3.75h0c-4.67-.38-8.36,2.06-11.97,4.44-.84,.55-1,2.13-1.48,3.23h0c-2.15,.02-4.42-.31-5.84,1.92Z"/>
  <path class="cls-7" d="M92.44,924.48c-.52-1.15-.98-2.35-1.59-3.46-13.37-24.29-12.72-48.91-1.59-73.69,4.77-10.62,11.85-19.69,19.89-28.02,3.09-3.21,5.78-6.85,9.6-9.3,3.32,.61,6.23-1.05,9.25-1.85,14.77-3.93,28.84-9.72,42.51-16.5,1.92-.95,4.3-1.64,4.06-4.57l-.07,.06c4.42,.06,8.31-.77,9.67-5.81l-.06,.06c1.31-.01,2.07-.58,1.99-1.99l-.08,.07c5.64,.45,8.2-2.97,9.68-7.73l-.06,.07c1.92-.68,2.36-2.09,1.97-3.92l-.05,.07c1.35,.03,1.91-.73,1.98-1.98l-.06,.08c6.04-7.27,4.87-15.25,2.16-23.31-.25-.74-1.42-1.16-2.16-1.73l.06,.08c0-1.92,0-3.84,0-5.76,10-7.73,19.99-15.47,30.01-23.16,1.99-1.53,3.89-3.27,6.49-3.77,1.54,1.08,3.04,2.25,4.64,3.23,20.51,12.53,41.04,25.03,61.56,37.54-7.38,9.19-14.7,18.44-22.16,27.56-14.33,17.53-28.75,34.98-43.08,52.51-1.23,1.51-3.26,2.88-2.35,5.9,5.58-1.37,10.78-2.74,16.01-3.92,20.91-4.72,42.2-6.35,63.51-7.9,.79,2.09,1.59,4.18,2.37,6.27,5.81,15.58,12.27,30.85,20.7,45.24,4.53,7.74,11,13.07,19.07,16.81,15.81,7.32,37.29,1.88,47.47-13.77,4.67-7.18,6.7-15.09,7.19-23.51,1.58,.02,3.16,.11,4.73,.04,13.7-.61,25.56-10.11,28.9-23.23,1.1-4.34,.91-8.76,.46-13.18,.29-1.48,.58-2.95,.86-4.43,16.03,1.97,31.66,5.85,47.2,10.12,.74,3.71-1.14,6.94-2.37,10.08-4.37,11.14,2.51,24.96,12.92,29.54,5.92,2.6,12.02,4.02,18.42,4.41,8.31,.51,16.51-.41,24.65-1.98,9.96-1.92,20.06-3.28,29.57-7.05,7.69,3.29,14.27,8.35,20.97,13.19,21.41,15.44,39.53,34.04,53.29,56.66,7.47,12.29,13.88,25.12,16.33,39.46,1.61,9.41,2.49,18.93-.98,28.22-8.61-2.99-16.87-7.07-25.96-8.61-8.42-1.43-16.29-.65-22.56,6.03-1.37,.51-2.78,.96-3.55,2.37-.65,.63-1.29,1.27-1.94,1.9-.62,.67-1.25,1.33-1.87,2-2.15,1.32-3.44,3.23-3.92,5.7-8.24,13.65-7.63,27.31-.03,40.97,.23,1.49,.64,2.89,1.97,3.82,.35,2.53,1.74,4.39,3.75,5.86,.2,1.19,.4,2.38,.61,3.57-1.57,1.28-3.14,2.56-4.7,3.84-2.84,1.33-5.74,2.56-8.52,4.01-18.53,9.67-37.75,17.68-57.77,23.72-.05-28.38-.09-56.75-.14-85.13,3.36,.04,6.14-1.62,8.84-3.25,4.9-2.95,9.84-5.89,14.47-9.24,9.06-6.54,17.4-13.9,24.07-22.96,.55-.74,.93-1.61,1.31-2.46,.09-.21-.04-.73-.22-.82-.52-.26-1.4-.69-1.63-.49-1.41,1.26-2.79,2.59-3.99,4.05-4.44,5.45-9.55,10.16-14.85,14.77-8.49,7.39-18.15,12.82-27.93,18.15-.1-3.19-.27-6.37-.28-9.56-.03-16.29-.01-32.57-.02-48.86,0-2.23,.12-4.49-.09-6.7-.9-9.38-7.58-15.53-17.09-15.81-1.91-.06-3.83-.02-5.75-.02-76.96,0-153.92,0-230.89,0-1.92,0-3.83-.05-5.75,.02-9.6,.33-15.45,5.56-16.66,15.07-.32,2.52-.21,5.1-.29,7.65-3.79,.57-7.55,1.38-11.36,1.67-8.26,.62-16.33,3.09-24.7,2.55-1.02-3.15-1.98-6.33-5.24-8.01-.5-1.37-.93-2.79-2.34-3.57-.63-.65-1.27-1.29-1.9-1.94-.66-.63-1.31-1.27-1.97-1.9-.76-1.43-2.18-1.84-3.55-2.34-4.07-5.22-10.14-6.28-16.02-6.87-6.27-.62-12.74-.8-18.97,0-9.05,1.16-18.15,2.81-25.64,8.79-3.79,.94-7.52,1.95-9.64,5.71-3.45,.81-6.34,2.34-7.67,5.9-.65,.64-1.3,1.29-1.96,1.93-.66,.64-1.32,1.28-1.97,1.92l-1.43,1.2c-8.27-.58-14.71-5.19-21.2-9.66-6.58-4.53-11.36-10.85-16.58-16.74Zm99.41-44.58c1.87,.1,2.75-1.42,3.78-2.53,7.8-8.36,15.59-16.74,23.29-25.19,3.64-3.99,7.1-8.13,10.58-12.25,.29-.35,.23-1.19,.05-1.71-.24-.69-.92-.8-1.59-.35-.78,.53-1.62,1.03-2.25,1.71-3.86,4.22-7.64,8.51-11.5,12.72-7.09,7.73-14.23,15.4-21.3,23.13-.82,.9-1.41,2.02-2.04,3.08-.11,.18,.06,.61,.22,.83,.17,.23,.48,.36,.75,.55Z"/>
  <path class="cls-4" d="M228.52,950.05c8.38,.55,16.44-1.93,24.7-2.55,3.81-.29,7.58-1.1,11.36-1.67,.06,33.67,.14,67.34,.18,101,0,3.17-.19,6.34-.29,9.52-4.85-.88-9.5,.86-14.25,1.16-17.35,1.09-33.97,5.3-50.19,11.38-12.4,4.64-23.62,11.3-33.72,19.75-8.93,7.47-16.16,16.53-20.28,27.47-8.09,21.46-5.67,41.92,7.21,61.01,.02,.58,.24,1.07,.66,1.48,6.32,12.03,15.6,21.58,25.8,30.25,12.39,10.54,25.9,19.49,40.24,27.18,1.97,1.06,3.92,2.11,5.32,3.92-9.25,7.17-11.42,16.24-8.06,27.3,2.87,9.46,5.02,19.15,7.55,28.72,1.06,4.01,2.17,8.01,4.86,11.36,.89,1.1,2.6,2.08,1.12,4.45-1.92,0-4.15,0-6.37,0-39.65,0-79.3,.01-118.94-.01-1.9,0-3.8-.29-5.7-.45-3.26-5.22-7.73-9.38-12.57-12.96-5.7-4.22-10.7-8.96-14.77-14.76-1.45-2.07-3.26-3.92-5.07-5.71-7.54-7.43-13.59-15.95-18.97-25.04-3.23-5.46-7.13-10.52-10.34-15.98-13.7-23.28-22.77-48.42-28.24-74.73-3.56-17.11-5.19-34.58-4.18-52.16,.18-3.18,.19-6.39,0-9.58-.49-8.35,1.86-16.38,2.75-24.58,1.06-9.79,4.05-19.21,6.63-28.71,2.6-9.58,5.92-18.86,10.01-27.8,5.7-12.46,11.65-24.87,19.15-36.37,5.2-7.98,11.08-15.51,16.71-23.21,1.02-1.39,2.67-1.63,4.29-1.74,.56,4.55,3.13,7.08,7.66,7.66,1.51,4.23,2.54,5.43,4.25,4.86,.26-.09,.55-.38,.65-.65,.65-1.79-.52-2.85-4.85-4.25-.57-4.8-4.09-7.22-7.7-9.58,3.48-4.43,6.79-9.01,10.52-13.22,2.69-3.04,5.49-6,9.08-8.18,3.8-2.31,7.14-5.25,7.7-10.15,5.22,5.89,10,12.21,16.58,16.74,6.49,4.47,12.93,9.08,21.2,9.66,.78,.36,1.57,.72,2.35,1.08,1.43,.62,2.8,1.54,4.3,1.8,6.24,1.12,12.52,1.82,18.89,1.91,15.56,.23,31.06-1.08,46.52-2.38,7.51-.63,15.23-.36,22.56-2.77,1.23-.16,2.46-.32,3.68-.48Zm-134.61,242.11c-.82,.26-1.77,.34-2.42,.82-.77,.58-.85,1.56,.15,2.08,.34,.18,1.26-.11,1.47-.46,.43-.71,.57-1.61,.83-2.43,2.26-1.38,1.87-3.64,1.92-5.75,2.13-.11,3.43-1.26,4.4-3.14,2.33-4.54,4.26-9.24,6.2-13.97,9.65-23.54,15.15-47.84,14.39-73.41-.19-6.39-.36-12.8,.05-19.17,.42-6.49-2.87-12.47-2.08-18.93-3.28-12.94-5.79-26.09-10.69-38.57-.34-.86-.93-1.7-1.6-2.34-.32-.31-1.11-.21-1.67-.15-.23,.02-.58,.44-.58,.68,0,.62,.03,1.29,.27,1.85,7.24,17.48,11.68,35.59,12.47,54.54,.07,1.57,.27,3.22,.82,4.68,1.05,2.78,1.12,5.63,1.02,8.5-.28,7.93,.39,15.82-1.5,23.78-1.37,5.75-.92,11.92-2.09,17.93-3.31,16.97-8.34,33.3-15.91,48.86-1.39,2.85-3.34,5.48-3.51,8.82-2.26,1.38-1.86,3.64-1.92,5.75Zm0-199.62c.32,.94,.63,1.09,.79,.43,.02-.09-.5-.3-.77-.46-.26-.82-.4-1.71-.83-2.43-.21-.35-1.13-.63-1.47-.45-1,.52-.92,1.5-.14,2.08,.65,.48,1.6,.56,2.42,.82Zm9.06,15.1c-.86-2.9-2.17-5.75-4.25-8.2-.23-.28-1.11-.09-1.65,.02-.22,.04-.54,.49-.51,.71,.45,3.23,2.02,5.97,4.07,8.42,.23,.28,1.11,.1,1.66,0,.21-.04,.35-.47,.68-.94Zm-17.26,194.86c-.24,.54-.47,1.08-.71,1.62,.54,.23,1.19,.77,1.58,.62,.39-.15,.81-1.11,.66-1.49-.15-.39-.99-.51-1.53-.74Zm-5.76,7.75c-.23,.54-.47,1.08-.7,1.61,.54,.23,1.2,.76,1.58,.6,.39-.16,.5-.99,.74-1.53-.54-.23-1.07-.46-1.62-.69Zm-5.76,7.68c-.23,.54-.47,1.08-.7,1.61,.54,.23,1.2,.76,1.58,.6,.39-.16,.5-.99,.74-1.53-.54-.23-1.07-.46-1.62-.69Zm-10.27,13.17c.54,.23,1.2,.77,1.58,.61,.39-.16,.51-.99,.75-1.53-.54-.23-1.2-.77-1.57-.61-.4,.17-.52,.99-.75,1.53Zm23.05-245.72c.54,.24,1.08,.47,1.61,.71,.23-.54,.77-1.19,.62-1.58-.15-.39-.99-.51-1.52-.74-.24,.54-.47,1.08-.7,1.62Zm-1.42-6.77c-.54-.23-1.08-.46-1.62-.7-.23,.54-.76,1.2-.6,1.58,.16,.39,.99,.5,1.53,.73,.23-.54,.46-1.07,.69-1.62Z"/>
  <path class="cls-12" d="M1151.56,807.96c-10.1,17.93-17.19,36.95-21.02,57.2-1.85,9.8-2.22,19.67-2.13,29.58,.12,13.42,.34,26.85,.54,40.27,.08,5.43-.3,5.87-5.89,6.07-1.92,.07-3.84,.02-5.75,.02-73.53,0-147.07-.07-220.6,.12-7.07,.02-12.91-1.63-18.64-5.76-11.14-8.04-22.71-15.48-34.04-23.24-1.81-1.24-4.01-2.08-5.13-4.18,75.18,0,150.36,0,225.53-.03,3.19,0,6.38-.13,9.57-.34,1.41-.09,2.23-1.18,2.5-2.51,.51-2.54,.59-5.15-.29-7.58-1.01-2.78-1.26-5.58-1.25-8.48,.03-11.84-.57-23.71,.19-35.5,.67-10.41,2.39-20.79,4.95-31,3.2-12.76,8.16-24.88,13.88-36.58,8.13-16.61,17.29-32.71,28.54-47.5,4.05-5.32,8.09-10.65,12.09-16.01,7.46-9.97,15.86-19.09,24.33-28.22,31.53-34,64.84-66.24,97.41-99.21,8.16-11.5,19.04-20.54,28.07-31.32,10.86-12.97,21.08-26.39,31.17-39.9,6.27-8.4,11.34-17.72,16.63-26.82,4.65-8,9.32-16.05,13.14-24.46,6.19-13.64,12.2-27.41,17.34-41.47,4.47-12.23,7.47-24.99,9.76-37.86,2.69-15.07,4.46-30.22,3.97-45.58-.28-8.95-.04-17.91-.1-26.87-.03-4.45,.44-8.97-1.43-13.25-.37-.84-.38-1.89-.38-2.84,.03-13.17-3.09-25.89-6.05-38.56-3.12-13.32-6.45-26.6-10.96-39.58-8.87-25.53-21.07-49.18-37.28-70.85-9.38-12.53-18.92-24.92-30.35-35.6-9.76-9.12-20.06-17.63-30.84-25.63-21.45-15.92-45.22-27.65-69.25-38.74-21.13-9.76-43.26-16.9-66.19-21.58-9.65-1.97-19.28-3.95-28.98-5.64-.85-.15-1.58-1-2.36-1.52,10.94-.81,21.7,1.17,32.45,2.45,22.53,2.67,44.87,6.62,66.74,12.79,53.33,15.04,102.14,39,143.61,76.08,38.94,34.81,66.46,77.37,81.5,127.67,6.88,23,12.01,46.4,14.74,70.24,2.41,20.97,2.86,41.98,1.44,63.15-3.52,52.32-22.1,99.46-48.08,144.13-16.61,28.56-36.72,54.62-59.02,78.97-23.32,25.47-47.2,50.4-71.36,75.06-19.02,19.41-38.06,38.81-55.62,59.57-17.39,20.56-32.74,42.54-45.26,66.43-.73,1.4-1.21,2.92-1.81,4.39Z"/>
  <path class="cls-4" d="M665.93,996.24c3.47-9.3,2.59-18.81,.98-28.22-2.45-14.34-8.85-27.17-16.33-39.46-13.76-22.63-31.88-41.22-53.29-56.66-6.7-4.83-13.28-9.9-20.97-13.19-1.12-1.33-2.3-2.57-4.23-2.57-3.22-1.89-6.39-3.85-9.66-5.64-4.63-2.54-9.32-4.95-13.98-7.42,7.09-3.78,10.7-10.81,15.29-16.81,12.35-16.14,24.12-32.71,36.46-48.86,6.55-8.57,14.21-16.31,20.58-25.01,4.9-6.7,11.48-11.92,15.83-19.06,1.3-2.13,3.44-3.75,5.24-5.56,9.47-9.49,18.92-19,28.44-28.44,17.49-17.34,37.37-31.56,58.32-44.36,2.99-1.82,5.95-3.68,9-5.4,2.79-1.57,5.66-3,9.03-2.63,0,1.29,0,2.58,0,3.87h0c-4.98,5.93-8.12,13.03-10.72,20.08-7.71,20.87-14.27,42.11-14.28,64.73,0,1.27,.07,2.67-.41,3.78-1.87,4.28-1.46,8.76-1.45,13.2,.02,8.57,.7,17.07,1.51,25.63,1.05,11.06,2.29,22.04,4.29,32.94,2.34,12.79,5.27,25.44,9.34,37.84,4.96,15.11,10.27,30.09,16.3,44.79,1.79,4.36,3.47,8.92,6.94,12.39-.1,2.13,1.13,3.81,1.91,5.65,.65,.68,1.29,1.35,1.94,2.03-.11,2.13,1.12,3.81,1.9,5.65,.65,.65,1.29,1.31,1.93,1.96h-.01c.93,5.13,3.7,9.46,6.31,13.82,.53,.88,2.17,1.09,3.3,1.61,.06,2.07-.34,4.29,1.84,5.67,.16,2.49,1.44,3.84,3.99,3.85,2.18,1.39,1.78,3.6,1.84,5.68,0,2.8,1.26,4.76,3.85,5.84h0c.07,2.49,1.33,3.79,3.85,3.84h0q.24,4.64,3.85,5.76s0-.01,0-.01q.24,4.65,3.85,5.77s0,0,0,0c-.19,3.3,.35,6.23,3.85,7.69h0c.14,3.89,2.67,6,5.77,7.68h0c.19,3.7,2.13,5.63,5.84,5.76,.61,.61,1.22,1.23,1.84,1.85-.23,3.35,.4,6.28,3.85,7.83,.61,.61,1.23,1.22,1.84,1.84-.24,1.24-.32,3.02-1.7,3.14-6.01,.52-11.75,2.72-17.86,2.65-8.6-.09-16.98,2.85-25.65,2.1-5.13,2.4-10.86,.75-16.02,2.15-8.39,2.28-17.04,1.92-25.51,3.02-7.82,1.01-15.73,2.13-23.66,2.77-9.76,.79-19.42,3-29.28,3.45-1.26,.06-2.49,.53-3.75,.7-9.12,1.22-18.11,3.58-27.42,3.04,1.89-2.89,3.88-5.72,5.65-8.68,4.04-6.75,8.29-13.42,9.12-21.53,.19-.84,.38-1.68,.57-2.52Z"/>
  <path class="cls-13" d="M288.34,522.17c-19.8,1.91-37.85-5.62-54.58-15.8-14.58-8.87-26.08-21.35-33.87-36.92-4.58-9.16-8.8-18.34-10.63-28.56-.62-3.47-1.28-6.86-1.29-10.38-.02-5.12,0-10.23-.03-15.35-.12-18.06,5.03-34.46,14.9-49.61,7.78-11.95,17.27-22.25,28.9-30.25,12.97-8.92,27.07-15.47,43.2-16.85,4.39-.37,8.7-1.57,13.21-1.69,15.29-.41,29.98,2.91,43.68,8.97,19.32,8.54,34.9,21.79,46.08,40.25,8.29,13.69,12.65,28.53,15.06,43.96,1.16,7.43,1.35,15.25-.73,22.84-.92,3.35-.92,6.93-1.62,10.35-2.72,13.36-8.26,25.67-16.39,36.39-11.69,15.39-25.61,28.43-44.28,35.36-5.37,1.99-10.42,4.81-16.26,5.48-3.15,.36-6.22,1.56-9.36,1.74-5.1,.3-10.23,.08-16,.08Zm14.76-101.21c.8-6.96-4.18-13.05-11.32-13.86-6.76-.77-14.11,4.85-15.1,11.54-.99,6.7,5.28,13.85,13.04,14.87,5.6,.74,12.61-5.84,13.38-12.55Zm26.48-13.88c-7.12-.24-12.8,5.15-12.91,12.25-.11,6.94,6.56,14.45,12.67,14.28,7.33-.21,13.99-7.01,13.87-14.16-.1-5.82-7.07-12.15-13.63-12.37Zm-66.68,12.22c-.07-7.33-5.38-12.4-12.8-12.23-7.54,.17-12.03,5.9-12.34,14.09-.21,5.66,7.82,12.29,12.62,12.44,6.18,.19,12.59-7.28,12.52-14.3Z"/>
  <path class="cls-4" d="M1145.91,1199.85c6.5-.12,12.24-3.26,18.45-4.66,11.49-2.58,23.05-4.01,34.75-5.26,9.21-.98,18.36-1.58,27.58-1.6,3.5,0,7.02-.21,10.39,1.21,1.14,.48,2.52,.72,3.74,.6,9.63-.99,18.96,1.97,28.51,2.06,4.78,.05,9.45,1.42,14.08,2.28,20.57,3.84,41.14,7.68,61.57,12.3,11.71,2.65,23.48,5.37,35.52,6.72,8.48,.95,16.81,3.15,25.21,4.8,.62,.12,1.24,.3,1.84,.5,2.84,.93,6.92-1.47,8.5,2.51,1.25,3.16-2.11,5.06-3.35,7.52-8.82,17.38-19.96,33.3-31.39,49.01-5.04,6.93-10.09,14.06-16.28,19.88-4.46,4.19-8.02,8.87-11.74,13.55-2.85,.17-5.7,.5-8.56,.5-90.92,.03-181.84,.03-272.76,0-2.85,0-5.71-.32-8.56-.49,.62-2.64,1.25-5.29,1.87-7.93,2.56-2.15,5.62-3.2,8.8-3.95,6.23,.69,12.05,.42,15.92-5.7,1.1-1.74,3.35-1.52,5.21-1.87,4.01-.77,6.21-4.26,9.18-6.53,2.16-1.65,1.12-4.73,1.08-7.23,4.37-4.38,8.74-8.77,13.11-13.15,3.74,.51,6.73-.29,8.44-4.13,1.01-2.26,2.31-4.44,3.79-6.42,2.97-3.97,4.22-8.27,3.37-13.17,.36-4.59,2.95-8.4,4.45-12.59,3.36-9.37,4.81-19.19,7.29-28.76Zm110.52,63.33c-.72,.67-1.18,1-1.48,1.43-.11,.15,.07,.72,.27,.84,2.93,1.74,6.06,2.91,9.49,3.1,.22,.01,.69-.42,.66-.58-.09-.55-.22-1.39-.58-1.54-2.82-1.18-5.69-2.23-8.36-3.25Zm36.36,12.59c-3.59-2.86-7.11-3.66-10.79-4.02-.2-.02-.52,.37-.63,.64-.1,.25-.08,.77,.07,.85,3.27,1.89,6.47,4.15,11.35,2.52Zm-103.53-33.53c-.03-.31,.05-.79-.11-.9-2.06-1.4-4.4-2.06-6.86-2.31-.21-.02-.53,.35-.66,.6-.12,.24-.18,.7-.04,.84,1.98,2.03,4.4,2.89,7.22,2.45,.18-.03,.31-.45,.46-.69Zm114.67,36.36c-.72-.54-1.38-1.22-2.19-1.59-.88-.4-2.05-.44-2.56,.5-.5,.94,.3,1.8,1.13,2.15,.83,.35,1.82,.46,2.73,.42,.28-.01,.53-.86,.89-1.49Zm-153.41-49.45c.54,.23,1.18,.76,1.58,.62,.38-.14,.8-1.1,.65-1.48-.15-.39-1.1-.8-1.49-.65-.38,.15-.5,.98-.74,1.52Zm170.62,56.38c.23-.54,.76-1.19,.6-1.57-.16-.39-.99-.5-1.52-.73-.23,.53-.76,1.19-.6,1.57,.16,.39,.99,.5,1.53,.73Zm21.85,5.97c-.54-.23-1.18-.75-1.58-.6-.37,.14-.49,.98-.72,1.51,.54,.23,1.18,.75,1.58,.61,.38-.14,.49-.98,.72-1.52Zm-177.11-56.59c.54,.23,1.18,.76,1.58,.62,.38-.14,.8-1.1,.65-1.48-.16-.39-1.1-.8-1.49-.65-.38,.14-.5,.98-.74,1.52Z"/>
  <path class="cls-4" d="M702.36,534.72c1.55,22.28-6.16,40.49-16.79,57.98-8.4,13.83-19.3,25.5-31.29,35.97-18.28,15.97-39.38,27.4-63.52,31.24-15.3,2.43-30.54,.44-43.87-9.07-8.56-6.11-14.88-14.08-18.85-23.59-4.05-9.69-6.16-19.78-6.3-30.63-.27-20.38,5.71-38.91,13.74-57.08,2.71-6.13,6.17-11.93,8.92-18.04,4.47-9.98,10.77-18.87,17.11-27.6,4.46-6.14,10.74-10.92,15.88-16.6,9.97-11.02,23.03-16.88,36.34-22.4,5.96-2.47,12.46-2.33,18.68-3.5,5.35-1.01,10.67,1.41,15.89,2.62,11.08,2.58,20.42,8.22,28.6,16.4,8.05,8.05,14.81,16.79,18.95,27.31,4.82,12.24,8.28,24.84,6.5,36.99Z"/>
  <path class="cls-6" d="M1063.4,1311.29c2.85,.17,5.71,.49,8.56,.49,90.92,.03,181.84,.03,272.76,0,2.85,0,5.7-.33,8.56-.5,3.5,.18,7,.51,10.49,.52,33.26,.04,66.52,.01,99.78,.04,2.85,0,5.72,.18,8.54,.55,.6,.08,1.22,1.3,1.51,2.1,.37,1.05-.43,1.88-1.28,2.25-.84,.37-1.86,.43-2.8,.45-2.56,.06-5.12,.02-7.67,.02-483.21,0-966.42,0-1449.62,0-3.2,0-6.4,0-9.59-.07-1.39-.03-2.35-.69-2.59-2.18-.27-1.68,.76-2.9,2.84-3.01,2.55-.13,5.11-.13,7.67-.13,26.54,0,53.09,.01,79.63-.03,3.18,0,6.36-.3,9.55-.45,1.9,.16,3.8,.45,5.7,.45,39.65,.02,79.3,.01,118.94,.01,2.22,0,4.44,0,6.37,0,1.48-2.37-.24-3.35-1.12-4.45-2.69-3.35-3.8-7.35-4.86-11.36-2.53-9.57-4.68-19.25-7.55-28.72-3.36-11.06-1.18-20.14,8.06-27.3,1.92,.13,3.67,.74,5.45,1.54,10.18,4.57,20.4,9.01,30.65,13.43,1.76,.76,3.61,1.28,4.83,2.9,1.96,10.94,5.74,21.4,8.54,32.13,.07,.28,.3,.61,.55,.75,.52,.29,1.19,.75,1.64,.61,.41-.12,.89-.99,.83-1.46-.23-1.55-.66-3.08-1.07-4.6-2.4-8.87-4.82-17.74-7.23-26.61,9.37,2.97,18.74,5.94,28.09,8.96,.54,.18,.93,.83,1.39,1.26,.63,5.07,2.12,9.91,3.85,14.69,.33,.92,.98,1.6,1.94,1.32,.35-.1,.74-1.14,.62-1.64-1.06-4.63-2.22-9.24-3.35-13.85,5.2-.11,9.87,2.17,14.8,3.26,17.99,4,35.96,8.05,53.94,12.08-5.12,4.55-11.54,6.64-17.68,9.2-17.44,7.26-35.73,11.59-54.21,15.22-1.5,.3-3.24,.04-4.15,1.79,3.38,1.32,6.93,.82,10.4,.82,58.38,.03,116.76,.03,175.14,.02,8.29,0,16.59,0,24.88-.12,.87-.01,2.58,.54,2.56-1.96-2.35-.7-4.75-1.32-7.08-2.13-5.67-1.96-11.72-2.73-17.12-5.53,6.26-10.5,9.89-21.87,12.12-33.88,1.34-7.27,.51-14.6,1.72-21.81,7.9,2.75,15.68,2.22,23.44-.71,7.77-2.93,15.57-5.8,23.41-8.51,14.82-5.12,29.77-9.69,45.57-10.72,.78-.05,1.52-.91,2.27-1.4,2.63,2.66,6.03,1.31,9.07,1.64,16.16,1.8,27.2,10.03,32.95,25.37,7.97,21.26,.17,45.14-21.01,55.43-1.53,.74-3.7,.94-4.12,3.91,2.82,.14,5.55,.4,8.27,.4,52.77,.02,105.55,.03,158.32,0,2.54,0,5.08-.32,7.62-.49,1.29,.54,2.59,.57,3.88,.01,2.21,.17,4.42,.48,6.63,.48,41.07,.03,82.14,.03,123.21,0,2.54,0,5.07-.25,7.61-.35,1.25-.05,1.35-1.15,1.85-1.89,.32,2.89,2.65,2.18,4.31,2.19,14.25,.06,28.51,.08,42.76,0,6.96-.04,13.92-.31,20.88-.47,15.52,.14,31.04,.29,46.56,.41,.6,0,1.35-.19,1.76-.58,.38-.36,.39-1.1,.56-1.67,.29,1.39,1.16,2.18,2.55,2.2,5.91,.12,11.83,.68,17.73-.32Zm-483.99-26.83c.81-6.49,.82-12.99,.02-19.48-.15-7.83-2.9-14.81-7.02-21.32-.47-.74-1.27-1.47-2.17-.59-.35,.34-.58,1.29-.36,1.67,3.67,6.36,5.07,13.53,7.43,20.36-.02,6.41-.04,12.83-.06,19.24-1.99,3.01-1.63,6.58-2.32,9.9-.06,.27,.73,.84,1.21,1.06,.73,.34,1.2-.03,1.41-.81,.91-3.29,2.43-6.46,1.85-10.02Zm-28.06,15.16c2.24-1.13,2.74-3.34,3.02-5.42,.87-6.64,1.58-13.28,1.11-20.02-.59-8.38-2.24-16.41-6.4-23.79-.61-1.08-1.5-2.02-2.3-2.98-.18-.21-.77-.41-.85-.33-.37,.42-.83,.91-.89,1.43-.08,.58,.1,1.29,.39,1.81,7.67,13.8,8.66,28.42,5.55,43.6-.37,1.81-1.08,3.74,.37,5.7Z"/>
  <path class="cls-5" d="M410.99,854.37c-.49,8.42-2.53,16.34-7.19,23.51-10.17,15.65-31.66,21.09-47.47,13.77-8.07-3.74-14.53-9.07-19.07-16.81-8.43-14.39-14.89-29.66-20.7-45.24-.78-2.09-1.58-4.18-2.37-6.27-.69-2.78-1.31-5.58-2.07-8.34-5.67-20.8-8.78-41.81-5.33-63.38,.25-1.56,.11-3.18,.16-4.77,.48-1.16,1.14-2.28,1.4-3.49,4.56-21.34,14.88-39.44,30.67-54.45-.46,2.83-.99,5.64-1.36,8.48-1.04,7.99,.63,15.24,6.09,21.39,.83,.94,1.72,1.91,3.53,1.22,.22-6.19-.27-12.54,.73-18.86,1.32-8.32,4.97-15.77,8.03-23.45,1.07-1.17,2.23-2.28,3.2-3.53,11.74-15.15,27.75-21.87,46.34-23.18,7.94-.56,15.93-.52,23.79,1.2,3.88,.85,7.43,.62,10.87-1.87,3.37-2.44,7.4-3.74,11.44-4.67,11.76-2.71,21.68,2.51,26.21,13.69,2.86,7.06,2.79,14.26,.85,21.54-1.87,7.02-6.63,11.41-12.85,14.54-5.52,1.47-10.96,3.26-16.75,3.62-12.15,.76-24.29,.74-36.3-1.21-4.23-.69-7.42,.22-10.65,2.67-5.17,3.93-8.02,9.12-8.31,15.5-.16,3.47,.52,6.97,.82,10.46,.27,3.17,.81,6.35,.72,9.52-.13,4.48-2.27,5.49-6.03,3.2-1.36-.83-2.64-1.82-4.07-2.5-7.31-3.48-15.56-1.77-19.91,4.06-4.29,5.75-3.42,14.14,2.14,20.18,2.42,2.63,5.26,4.65,8.78,5.55,2.41,.62,4.82,1.25,7.1,1.85,1.93,19.68,3.36,26.73,8.3,39.44,3.24,8.34,6.85,16.53,11.39,24.24,4.13,7,6.74,14.42,7.86,22.42Z"/>
  <path class="cls-12" d="M1043.13,1309.4c-.17,.57-.18,1.32-.56,1.67-.41,.39-1.16,.58-1.76,.58-15.52-.11-31.04-.26-46.56-.41,.82-1.03,1.83-1.66,3.18-1.9,10.16-1.8,19.64-5.89,28.56-10.61,16.38-8.67,31.6-19.26,43.87-33.44,7.11-8.22,13.47-17.18,17.41-27.27,6.24-16.03,10.89-32.46,11.02-50.06,.06-7.53,.28-15.01-.07-22.57-.34-7.34-.8-14.61-2.28-21.78-3.19-15.45-8.97-29.89-17.57-43.13-6.99-10.76-15.58-19.89-25.74-27.93-13.43-10.63-27.92-18.86-44.05-24.46-5.36-1.86-11.04-2.75-16.09-5.48,16.69-3.46,33.17-1.11,49.27,3.02,42.42,10.86,73.19,36.44,92.4,75.7,7.8,15.94,12.09,32.91,12.14,50.79,.03,8.62-.15,17.23-.23,25.85-.05,.64-.09,1.27-.14,1.91-2.48,9.57-3.93,19.39-7.29,28.76-1.5,4.18-4.09,8-4.45,12.59-5.2,7.91-10.4,15.81-15.6,23.72-4.37,4.38-8.74,8.77-13.11,13.15-6.75,4.72-13.52,9.4-20.23,14.17-3.61,2.56-8.04,3.83-11.15,7.16-3.19,.75-6.24,1.81-8.8,3.95-3.5,1.13-6.98,2.37-10.51,3.38-3.83,1.09-7.48,2.98-11.63,2.67Z"/>
  <path class="cls-3" d="M410.99,854.37c-1.12-8-3.73-15.42-7.86-22.42-4.54-7.7-8.15-15.9-11.39-24.24-4.94-12.71-6.38-19.75-8.3-39.44-2.28-.6-4.69-1.23-7.1-1.85-3.53-.9-6.36-2.92-8.78-5.55-5.56-6.04-6.43-14.43-2.14-20.18,4.35-5.83,12.6-7.55,19.91-4.06,1.43,.68,2.71,1.67,4.07,2.5,3.76,2.3,5.9,1.28,6.03-3.2,.09-3.16-.45-6.35-.72-9.52-.29-3.49-.97-6.99-.82-10.46,.29-6.38,3.14-11.57,8.31-15.5,3.22-2.45,6.42-3.35,10.65-2.67,12.01,1.95,24.15,1.97,36.3,1.21,5.8-.36,11.23-2.15,16.75-3.62,.39,2.36,.78,4.72,1.16,7.07-3.4,.68-6.91,1.05-9.92,2.9-1.34,.82-2.4,2.15-1.49,3.95,.64,1.25,1.81,1.69,3.14,1.58,3.86-.31,7.29-1.88,10.62-3.73,6.02,12.53,8.37,26,10.07,39.61,.88,7.06-.31,14.07-2.13,20.82-2.43,9-8.09,15.79-16.38,20.25-4.81,2.59-9.96,4.2-15.35,5.07-3.81-.26-7.66-.26-11.41-.86-4.07-.65-8.03-1.95-12.08-2.77-3.52-.71-6.58-3.33-10.75-2.99,8.05,15.25,19.24,25.7,33.69,31.72,.45,4.41,.65,8.84-.46,13.18-3.34,13.12-15.2,22.62-28.9,23.23-1.57,.07-3.15-.03-4.73-.04Zm14.48-128.5c3.39-.18,9.56-2.59,12.35-4.87,1.27-1.04,1.94-2.45,1.24-4.16-.71-1.77-2.72-2.85-4.62-2.28-4.28,1.27-8.2,3.18-10.95,6.9-.8,1.08-1.11,2.4-.3,3.44,.49,.63,1.65,.74,2.28,.98Zm31.07,1.54c1,6.07,.92,6.24,3.86,7.55,1.72,.76,4.13,.87,4.51,2.88,.32,1.66-.64,3.56-.97,5.36-.04,.21,.28,.48,.44,.73,3.22-3.14,3.99-4.26,3.76-5.79-.36-2.44-1.83-4.26-4.13-4.61-3.37-.51-4.83-3.4-7.46-6.12Zm-69.7,28.22c1.31-3.2-.52-5.52-2.26-7.74-2.09-2.65-5.04-3.84-8.36-3.87-.85,0-2.3,.49-2.46,1.03-.61,2.16,1.37,1.5,2.28,1.53,3.95,.13,6.57,1.99,8.09,5.58,.58,1.36,.74,3.08,2.71,3.46Zm61.22,3.37c5.58-2.51,10.47-1.95,15.25,0,.18,.07,.74-.25,.77-.44,.07-.52,.16-1.37-.12-1.57-2.98-2.1-6.37-2.73-9.94-2.32-2.18,.25-4.49,.41-5.95,4.32Zm-7.53-29.66c-1.97,.04-3.55,1.62-3.58,3.57-.03,1.98,1.48,3.72,3.35,3.86,2.15,.16,4.3-1.98,4.15-4.13-.12-1.73-2.04-3.35-3.92-3.31Zm29.79-8.78c.22-1.88-1.17-3.9-2.9-4.2-2.07-.36-4.37,1.58-4.44,3.74-.06,1.78,1.55,3.46,3.49,3.64,1.93,.17,3.63-1.23,3.86-3.19Z"/>
  <path class="cls-12" d="M710.17,320.58c.98-.78,1.86-1.77,2.96-2.3,13.77-6.68,27.33-13.74,41.31-20.02,22.42-10.06,45.28-18.8,68.62-26.36,16.63-5.39,33.59-9.6,50.81-12.61,12.17-2.13,24.36-4.78,36.64-5.46,9.85-.55,19.5-2.89,29.46-2.38,9.87,.51,19.79,.03,29.69,.11,18.58,.15,36.64,3.35,54.19,9.48,1.26,.44,2.34,.92,2.86,2.23-12.74,.26-25.48,.34-38.23,.84-53.9,2.12-105.34,14.72-155.12,34.99-23.37,9.52-46.33,19.91-68.65,31.66-5.85,3.08-11,3.59-17.22,1.54-11.5-3.8-23.24-6.87-34.87-10.3-.89-.26-1.65-.93-2.47-1.41Z"/>
  <path class="cls-3" d="M339.02,688.89c-15.79,15.01-26.11,33.11-30.67,54.45-.26,1.21-.92,2.33-1.4,3.49-1.56,.78-3.13,1.56-4.69,2.33-20.52-12.51-41.05-25.01-61.56-37.54-1.61-.98-3.1-2.15-4.64-3.23,1.94-2.09,3.72-4.38,5.86-6.24,17.83-15.44,35.68-30.85,53.63-46.15,3.14-2.67,6.61-5.02,10.15-7.14,4.17-2.49,5.31-2.23,8.64,1.85,1.3,1.6,2.34,1.77,3.97,.99,2.58-1.23,5.11-2.59,7.78-3.58,3.27-1.22,3.75-.74,5.45,4.23-.29,.45-.92,1.1-.81,1.3,.72,1.18,1.29,.3,1.84-.27,2.45-.64,4.89-1.39,7.37-1.89,3.21-.65,5.81,1.73,5.26,4.96-.53,3.11-1.49,6.15-2.26,9.23-.6,.52-1.44,1.04-.31,1.78,.14,.09,.78-.58,1.19-.89,2.97-.77,5.9-1.77,8.92-2.25,3.09-.49,4.83,1.84,3.48,4.56-1.51,3.03-3.36,5.89-5.06,8.82-4.05,3.74-8.11,7.47-12.16,11.21Z"/>
  <path class="cls-10" d="M182.21,159.38c-27.17,0-54.34,.03-81.51-.02-8.56-.01-8.65-.11-8.67-8.47-.05-21.73-.02-43.47-.02-65.2,0-1.28-.03-2.56,.06-3.83,.25-3.63,1.13-4.64,4.52-4.84,2.55-.15,5.11-.1,7.67-.1,31.32,0,62.65-.02,93.97,0,11.33,0,10.92,.33,10.9-11.1-.02-17.9,0-35.8,0-53.7,0-2.56-.05-5.12,.11-7.67,.18-2.97,1.21-4.08,4.08-4.21,2.86-.13,5.93-.6,8.58,.2,5.98,1.81,12.02,1.39,18.06,1.4,46.03,.03,92.05,.03,138.08,.01,12.25,0,11.63-.52,11.62,11.35,0,19.5,0,38.99-.01,58.49,0,2.55-.04,5.11-.28,7.65-.16,1.78-1.44,2.88-3.18,3-2.86,.2-5.74,.22-8.62,.22-31.32,.01-62.65,.02-93.97,0-11.4,0-11.1-.51-11.08,10.9,.03,17.9,0,35.8,0,53.7,0,2.24,.06,4.48-.04,6.71-.21,4.58-.96,5.27-5.89,5.47-2.23,.09-4.47,.03-6.71,.03-25.89,0-51.78,0-77.67,0Zm-.98-5.68c24.93,0,49.85,0,74.78,0,2.56,0,5.12,.06,7.67-.07,3.65-.19,4.61-1.1,4.85-4.5,.13-1.91,.09-3.83,.09-5.75,0-16.94,.03-33.87,0-50.81-.02-9.91-.06-9.97-10.05-9.97-50.81-.02-101.62-.01-152.43,0-2.24,0-4.48-.01-6.7,.18-1.72,.15-3.02,1.13-3.22,2.95-.21,1.9-.28,3.82-.28,5.73-.02,17.89-.05,35.79,0,53.68,.03,8.44,.11,8.53,8.6,8.55,25.56,.05,51.13,.02,76.69,.02Zm119.09-76.8c24.62,0,49.24,.01,73.86-.01,2.87,0,5.74-.11,8.6-.35,1.34-.11,2.39-1,2.57-2.42,.23-1.89,.38-3.81,.38-5.72,.03-17.9,.02-35.81,.01-53.71,0-1.6,.02-3.2-.12-4.79-.25-2.82-1.29-3.79-4.32-4-1.91-.13-3.83-.1-5.75-.1-50.2,0-100.4,0-150.6,0-2.23,0-4.48,.02-6.7,.22-1.74,.16-2.94,1.23-3.18,3.01-.21,1.58-.26,3.18-.26,4.77-.02,18.22-.05,36.45,0,54.67,.03,8.3,.12,8.39,8.77,8.41,25.58,.05,51.16,.02,76.74,.02Z"/>
  <path class="cls-13" d="M379.95,550.65c.97,12.73-4.75,21.2-16.09,25.52-9.19,3.5-18.1,2.59-25.64-4.51-2.77-2.61-5.03-5.61-7.19-8.81-8.62-12.79,2.44-37.49,22.06-36.98,7.66,.2,14.22,1.25,19.81,7.22,4.87,5.2,8.12,10.55,7.06,17.56Z"/>
  <path class="cls-7" d="M548.46,843.08c4.66,2.47,9.36,4.88,13.98,7.42,3.27,1.79,6.44,3.75,9.66,5.64-.76,.54-1.46,1.4-2.3,1.57-9.33,1.96-18.64,4.1-28.04,5.61-8.52,1.37-17.18,1.21-25.77,.43-4.14-.37-8.15-1.75-11.71-3.91-7.3-4.42-11.45-10.55-11.33-19.6,.07-5.42,2.94-9.69,4.13-14.6,2.64-.46,5,.6,7.44,1.33,12.53,3.77,24.74,8.41,36.79,13.48,2.33,.98,4.76,1.75,7.14,2.61Z"/>
  <path class="cls-7" d="M124.48,804.36c1.12-1.51,2.06-3.19,3.38-4.49,21.01-20.69,42.49-40.88,65.5-59.37,2.06,.19,4.13,.39,6.19,.58,0,0-.06-.08-.06-.08-.05,.94-.38,1.97-.11,2.8,1.97,6.18,2.47,12.3,.04,18.52-.42,1.07,.02,2.48,.07,3.73,0,0,.06-.08,.06-.08-1.39-.07-1.93,.71-1.98,1.98,0,0,.05-.07,.05-.07-1.99,.64-2.44,2.05-1.97,3.92,0,0,.06-.07,.06-.07-4.95,.42-7.08,4.38-9.68,7.73,0,0,.08-.07,.08-.07-1.2,.13-1.93,.72-1.99,1.99,0,0,.06-.06,.06-.06-4.07,.53-7.46,2.2-9.67,5.81,0,0,.07-.06,.07-.06-2.06-.28-3.69,.81-5.37,1.7-9.04,4.79-18.52,8.55-28.13,11.97-5.34,1.9-10.64,4.44-16.62,3.6Z"/>
  <path class="cls-13" d="M393.35,602.77c-.07,12.35-14.09,18.46-21.62,13.23-4.62-3.21-8.67-7.1-8.74-12.95-.07-6.29,4.15-10.41,9.22-13.6,3.9-2.45,7.82-2.43,11.73,0,5.42,3.37,9.16,7.84,9.42,13.32Z"/>
  <path class="cls-5" d="M445.08,818.01c-14.45-6.01-25.65-16.47-33.69-31.72,4.16-.35,7.23,2.27,10.75,2.99,4.05,.82,8.01,2.13,12.08,2.77,3.76,.6,7.6,.6,11.41,.86,.1,6.89,.21,13.78,.31,20.67-.29,1.48-.57,2.95-.86,4.43Z"/>
  <path class="cls-8" d="M1445.44,996.34c-8.06-.9-15.86,1.25-23.63,2.58-14.99,2.56-29.85,5.91-44.7,9.21-5.88,1.31-11.56,3.48-17.39,5.05-12.61,3.4-24.99,7.52-37.33,11.76-1.79,.61-3.67,.97-5.53,1.38-.2,.04-.67-.32-.7-.54-.07-.55-.14-1.49,.11-1.62,1.7-.84,3.45-1.6,5.24-2.23,24.02-8.46,48.48-15.5,73.31-21.06,12.34-2.77,24.8-5.3,37.45-6.57,3.76-.38,7.31-2.31,11.24-1.77,.64,1.27,1.28,2.54,1.91,3.81Z"/>
  <path class="cls-9" d="M497.09,825.66c-1.18,4.9-4.06,9.17-4.13,14.6-.12,9.05,4.03,15.18,11.33,19.6,3.56,2.16,7.56,3.53,11.71,3.91,8.59,.77,17.25,.94,25.77-.43,9.41-1.51,18.71-3.65,28.04-5.61,.84-.18,1.53-1.03,2.3-1.57,1.93,0,3.11,1.24,4.23,2.57-9.52,3.77-19.61,5.13-29.57,7.05-8.14,1.57-16.34,2.49-24.65,1.98-6.4-.39-12.5-1.81-18.42-4.41-10.41-4.58-17.29-18.4-12.92-29.54,1.23-3.15,3.11-6.37,2.37-10.08,1.77-.26,3.02,.53,3.96,1.95Z"/>
  <path class="cls-2" d="M339.02,688.89c4.05-3.74,8.11-7.47,12.16-11.21,1.62,0,3.24,0,4.86-.01-3.06,7.68-6.71,15.13-8.03,23.45-1,6.32-.51,12.67-.73,18.86-1.82,.69-2.7-.28-3.53-1.22-5.46-6.15-7.13-13.4-6.09-21.39,.37-2.84,.9-5.65,1.36-8.48Z"/>
  <path class="cls-9" d="M124.48,804.36c5.98,.84,11.28-1.7,16.62-3.6,9.61-3.42,19.09-7.18,28.13-11.97,1.68-.89,3.31-1.99,5.37-1.7,.24,2.93-2.14,3.62-4.06,4.57-13.67,6.78-27.74,12.57-42.51,16.5-3.02,.8-5.93,2.47-9.25,1.85,.59-2.08,1.63-3.68,4.09-3.71,.6-.67,1.2-1.35,1.8-2.02l-.18,.08Z"/>
  <path class="cls-6" d="M469.41,707.17c-3.33,1.85-6.76,3.41-10.62,3.73-1.33,.11-2.51-.33-3.14-1.58-.91-1.8,.15-3.13,1.49-3.95,3.01-1.85,6.52-2.22,9.92-2.9,1.49,1.22,3.26,2.29,2.36,4.71Z"/>
  <path class="cls-8" d="M65.14,956.04c3.6,2.36,7.13,4.79,7.7,9.58l-.05,.05c-4.53-.58-7.1-3.11-7.66-7.66,0-.66,0-1.31,.01-1.97Z"/>
  <path class="cls-9" d="M199.55,741.08c-2.06-.19-4.13-.39-6.19-.58,1.13-2.84,3.81-3.84,6.2-5.18,0,1.92,0,3.84,0,5.76Z"/>
  <path class="cls-8" d="M746.64,650.83c0-1.29,0-2.58,0-3.87,0,0-.02,.02-.02,.02,.65-.64,1.29-1.28,1.94-1.92,.66,0,1.31,.02,1.97,.03q-.31,4.63-3.89,5.73Z"/>
  <path class="cls-8" d="M1345.6,858.23c.01-1.62,.35-3.07,1.92-3.92,.64,.64,1.28,1.27,1.92,1.91-.81,1.56-2.27,1.89-3.84,2.01Z"/>
  <path class="cls-4" d="M748.56,645.07c-.65,.64-1.29,1.28-1.94,1.92,.65-.64,1.29-1.28,1.94-1.92Z"/>
  <path class="cls-7" d="M124.65,804.28c-.6,.67-1.2,1.35-1.8,2.02,0-1.21,.67-1.82,1.8-2.02Z"/>
  <path class="cls-11" d="M992.47,1042.6c5.05,2.73,10.74,3.63,16.09,5.48,16.13,5.6,30.61,13.83,44.05,24.46,10.16,8.04,18.75,17.18,25.74,27.93,8.6,13.24,14.38,27.69,17.57,43.13,1.48,7.17,1.94,14.44,2.28,21.78,.35,7.56,.13,15.04,.07,22.57-.13,17.6-4.77,34.03-11.02,50.06-3.93,10.1-10.3,19.06-17.41,27.27-12.27,14.18-27.49,24.77-43.87,33.44-8.92,4.72-18.4,8.81-28.56,10.61-1.35,.24-2.35,.87-3.18,1.9-6.96,.17-13.92,.44-20.88,.47-14.25,.08-28.51,.07-42.76,0-1.66,0-3.98,.71-4.31-2.19-2.2-.32-4.47-.41-6.6-1-20.36-5.63-38.39-15.71-54.4-29.34-8.03-6.84-15.53-14.28-21.54-23.08-14.32-20.95-20.41-44.54-21.98-69.47-.95-15.04,.27-29.99,3.46-44.76,4.91-22.72,14.86-42.69,31.44-59.25,6.37-6.36,13.44-11.8,20.49-17.31,13.05-8.09,26.48-15.34,41.35-19.59,11.08-3.17,22.32-5.2,33.88-5.51,13.43-.36,26.78,.31,40.06,2.37Z"/>
  <path class="cls-4" d="M877.18,1065.33c-7.05,5.51-14.12,10.95-20.49,17.31-16.59,16.56-26.54,36.53-31.44,59.25-3.19,14.77-4.41,29.72-3.46,44.76,1.57,24.93,7.66,48.52,21.98,69.47,6.01,8.79,13.51,16.24,21.54,23.08,16.01,13.63,34.04,23.71,54.4,29.34,2.13,.59,4.39,.68,6.6,1-.5,.74-.6,1.85-1.85,1.89-2.54,.1-5.07,.35-7.61,.35-41.07,.02-82.14,.03-123.21,0-2.21,0-4.42-.31-6.63-.48-.8-1.62-2.24-2.01-3.88-2.04h.01q-.23-4.63-3.85-5.76h0c.22-3.32-.43-6.22-3.85-7.75-.61-.61-1.22-1.23-1.83-1.84-.17-2.45-1.39-3.82-3.93-3.85h0q-.24-4.64-3.85-5.76h0q-.24-4.64-3.85-5.76h0c.08-4.83-1.42-8.89-5.77-11.52h0c-.01-2.76-1.29-4.69-3.85-5.76h0c-.66-3.95-1.91-7.56-5.77-9.6h0c-.65-3.97-1.96-7.57-5.77-9.67-.03-1.54-.35-2.93-1.84-3.75-.16-2.49-1.43-3.84-3.99-3.85-1.74-1.17-1.84-2.96-1.84-4.79,0-1.83-.11-3.63-1.84-4.79-1.05-5.1-3.8-9.43-6.32-13.86-.68-1.19-2.08-1.36-3.36-1.51h0c.14-3.78-.81-7.14-3.85-9.67-.03-1.54-.35-2.93-1.84-3.76-3.33-9.57-7.83-18.56-13.51-26.96-.18-3.6-2.54-6.33-3.83-9.49-1.36-3.18-2.64-6.4-4.09-9.54-1.71-3.72-3.57-7.38-5.34-11.08-.77-1.6-2.11-2.24-3.77-2.42,0-.96-.21-1.98,.05-2.86,2.56-8.41,.52-16.45-2-24.4-3.65-11.52-11.82-19.55-21.29-26.36-11.35-8.16-24.34-12.4-37.78-15.67-5.55-1.35-11.45-.98-16.71-3.57,1.57-1.28,3.14-2.56,4.71-3.84,2.37-.46,4.45-1.41,5.84-3.49,11.37-6.98,21.03-16,30.46-25.31,1.33,1.75,3.26,1.98,5.18,1.73,5.65-.74,11.39-1.19,16.89-2.57,7.14-1.8,14.48-1.82,21.67-2.75,7.18-.92,14.43-2.08,21.7-2.72,5.92-.53,11.96-1.23,17.93-2.02,9.1-1.2,18.2-2.44,27.34-3.24,7.9-.69,15.74-1.91,23.64-2.61,4.36-.39,8.76-1.19,13.21-1.33,1.58-.05,3.31,.04,4.71-.54,3.69-1.53,7.5-1.27,11.32-1.36,1.9-.05,4.14,.33,5.64-.52,4.7-2.64,7.83,.22,11.23,2.53,.83,1.49,2.22,1.81,3.77,1.83-.43,5.88,3.61,8.78,7.75,11.6,5.29,2.83,10.4,5.88,13.43,11.38,.01,1.91-.31,4.04,1.06,5.5,3.47,3.71,7.07,7.32,10.79,10.79,1.47,1.37,3.59,1.04,5.5,1.06,2.97,1.7,5.51,3.72,5.69,7.53Z"/>
  <path class="cls-8" d="M829.2,1015.64c-3.4-2.31-6.52-5.17-11.23-2.53-1.51,.85-3.74,.47-5.64,.52-3.82,.09-7.63-.17-11.32,1.36-1.41,.58-3.13,.49-4.71,.54-4.45,.14-8.85,.94-13.21,1.33-7.9,.7-15.74,1.93-23.64,2.61-9.14,.79-18.24,2.03-27.34,3.24-5.97,.79-12.01,1.49-17.93,2.02-7.27,.65-14.52,1.8-21.7,2.72-7.19,.92-14.53,.95-21.67,2.75-5.5,1.39-11.24,1.83-16.89,2.57-1.92,.25-3.85,.03-5.18-1.73,.62-.69,1.23-1.37,1.85-2.06,9.31,.53,18.3-1.83,27.42-3.04,1.26-.17,2.49-.64,3.75-.7,9.85-.45,19.52-2.66,29.28-3.45,7.93-.64,15.85-1.76,23.66-2.77,8.47-1.09,17.13-.74,25.51-3.02,5.16-1.4,10.89,.25,16.02-2.15,8.67,.75,17.05-2.19,25.65-2.1,6.11,.06,11.85-2.13,17.86-2.65,1.38-.12,1.46-1.9,1.7-3.14,8.12,2.13,16.14,2.76,24.5,.63,5.79-1.47,12.02-1.82,17.92-2.13,7.98-.43,15.9-1.57,23.67-2.74,7.2-1.08,14.54-.96,21.72-2.75,6.09-1.51,12.57-1.48,18.87-2.43,11.6-1.75,23.28-2.95,34.78-5.41,4.97-1.06,10.06-1.21,15.09-2.05,17.53-2.94,34.97-6.37,52.47-9.41,29.5-5.12,58.45-12.48,87.34-20.04,21.25-5.56,42.3-12.12,62.99-19.48,17.99-6.4,35.94-13.12,53.22-21.4,1.68-.8,3.02-.73,4.14,.83-1.27,.92-2.41,2.13-3.82,2.73-26.38,11.2-53.07,21.57-80.45,30.09-24.59,7.65-49.45,14.3-74.46,20.39-11.71,2.85-23.45,5.75-35.32,7.75-7.51,1.27-14.97,2.71-22.44,4.17-13.68,2.68-27.38,5.25-41.14,7.48-10.63,1.72-21.38,2.72-32.04,4.28-10.96,1.61-21.87,3.57-32.81,5.29-5.32,.84-10.74,1.14-16.06,1.7-7.25,.76-14.55,1.67-21.7,2.78-8.47,1.31-17.13,.7-25.47,3.09-2.68,.77-5.71,.57-8.57,.43-4.6-.22-8.7,1.67-13,2.68-1.38,.32-1.4,1.97-1.68,3.2Z"/>
  <path class="cls-8" d="M1251.93,1052.78c-1.73,2.52-4.56,3.24-6.98,4.44-9.09,4.52-18.25,8.89-27.43,13.25-.32,.15-1.31-.39-1.46-.8-.16-.45,.12-1.33,.52-1.65,.97-.79,2.08-1.46,3.2-2.03,7.95-4.01,15.9-8,23.89-11.93,2.51-1.23,5.01-2.97,8.26-1.28Z"/>
  <path class="cls-8" d="M1256.27,1050.2c.08-2.01,1.84-2.44,3.16-3.02,10.4-4.59,20.84-9.11,31.29-13.57,.87-.37,1.89,.06,2.02,1.17,.06,.5-.35,1.32-.78,1.55-1.66,.88-3.42,1.58-5.15,2.33-6.95,3.03-13.9,6.06-20.85,9.07-3.09,1.34-5.99,3.45-9.69,2.48Z"/>
  <path class="cls-8" d="M1251.47,911.9c8.39-5.69,17.38-10.17,26.95-13.51-.15,1.6-.56,3.08-2.13,3.87-7.21,3.65-14.41,7.31-21.66,10.88-1.24,.61-2.37-.13-3.15-1.24Z"/>
  <path class="cls-8" d="M871.49,1057.8c-1.91-.02-4.04,.31-5.5-1.06-3.71-3.47-7.32-7.07-10.79-10.79-1.37-1.47-1.05-3.59-1.06-5.5,6.49,5.08,12.27,10.86,17.35,17.35Z"/>
  <path class="cls-8" d="M1288.01,894.63c.47-1.11,.64-2.68,1.48-3.23,3.62-2.38,7.3-4.82,11.97-4.45-3.2,4.81-8.28,6.33-13.45,7.69Z"/>
  <path class="cls-8" d="M840.72,1029.07c-4.15-2.82-8.18-5.72-7.75-11.6,4.28,2.73,8.28,5.65,7.75,11.6Z"/>
  <path class="cls-8" d="M1140.18,1113.45c2.64-4.32,6.68-5.83,11.52-5.76,0,0,.03,.02,.03,.02-2.64,4.32-6.69,5.83-11.52,5.76l-.03-.02Z"/>
  <path class="cls-8" d="M1155.54,1103.85c2.64-4.32,6.69-5.82,11.52-5.76l.03,.03c-2.64,4.32-6.69,5.82-11.52,5.76l-.03-.02Z"/>
  <path class="cls-8" d="M1301.05,1031.93c-.2-.22-.5-.41-.58-.66-.09-.27-.09-.73,.08-.89,1.95-1.83,5.96-2.92,7.35-2.04,1.84,1.15-3.53,3.97-6.85,3.6Z"/>
  <path class="cls-8" d="M1301.45,886.95c.15-1.53,.61-2.85,2-3.75,2.33-1.5,4.84-2.23,7.6-2.01-2.04,3.86-5.65,5.11-9.61,5.77Z"/>
  <path class="cls-8" d="M1311.05,881.19c1.17-5.3,5.31-5.67,9.61-5.77-2.04,3.86-5.65,5.11-9.61,5.77Z"/>
  <path class="cls-8" d="M1167.06,1098.09c.54-4.62,4.27-4.98,7.68-5.76l.02,.02c-.53,4.62-4.25,5-7.68,5.76,0,0-.03-.03-.03-.03Z"/>
  <path class="cls-8" d="M1200.82,1078.85c-.35,2.09-4.2,4-5.62,2.72-.31-.28-.42-1.29-.18-1.56,1.24-1.38,2.75-2.45,4.72-2.33,.38,.02,.72,.76,1.08,1.17Z"/>
  <path class="cls-8" d="M1337.92,863.91q1.14-3.62,5.83-3.85c-1.14,2.5-3.04,3.86-5.83,3.85Z"/>
  <path class="cls-8" d="M1140.21,1113.48c-.26,.87-.3,1.92-.84,2.54-.52,.58-1.54,.84-2.38,.96-.34,.05-1.16-.88-1.12-.95,.47-.73,.95-1.57,1.66-1.98,.75-.43,1.76-.42,2.65-.6,0,0,.03,.02,.03,.02Z"/>
  <path class="cls-8" d="M1320.64,875.43q1.12-3.61,5.77-3.85c-1.07,2.56-3,3.84-5.77,3.85Z"/>
  <path class="cls-8" d="M1326.4,871.59q1.12-3.61,5.77-3.85c-1.07,2.56-3,3.84-5.77,3.85Z"/>
  <path class="cls-8" d="M1332.16,867.75q1.12-3.61,5.77-3.85c-1.07,2.56-3,3.83-5.77,3.85Z"/>
  <path class="cls-8" d="M1181.91,1087.31c.54,.23,1.08,.47,1.62,.7-.24,.54-.36,1.37-.75,1.52-.39,.15-1.05-.38-1.58-.61,.24-.54,.47-1.08,.71-1.61Z"/>
  <path class="cls-8" d="M1155.56,1103.88c-.06,2.5-1.36,3.76-3.84,3.84,0,0-.03-.02-.03-.02,.06-2.5,1.36-3.76,3.84-3.84,0,0,.03,.02,.03,.02Z"/>
  <path class="cls-8" d="M1282.17,896.55c1.42-2.23,3.69-1.9,5.84-1.93-1.4,2.3-3.7,1.87-5.84,1.93Z"/>
  <path class="cls-8" d="M1208.29,1074.92c-.47-.29-.94-.58-1.4-.87,.5-.25,1-.71,1.49-.69,.48,.02,.94,.52,1.41,.81-.5,.25-1,.5-1.49,.75Z"/>
  <path class="cls-8" d="M1174.74,1092.33c.16-.27,.37-.79,.46-.77,.66,.16,.51,.47-.43,.79,0,0-.02-.02-.02-.02Z"/>
  <path class="cls-8" d="M758.16,906.21c-3.48-3.47-5.16-8.03-6.94-12.39-6.04-14.71-11.34-29.68-16.3-44.79-4.07-12.4-7-25.05-9.34-37.84-1.99-10.9-3.24-21.89-4.29-32.94-.81-8.55-1.49-17.05-1.51-25.63-.01-4.44-.42-8.92,1.45-13.2,.49-1.11,.41-2.51,.41-3.78,.01-22.62,6.57-43.86,14.28-64.73,2.6-7.05,5.74-14.15,10.72-20.09,.19,2.63-.57,4.99-1.74,7.34-6.14,12.3-10.71,25.25-14.25,38.46-2.61,9.74-3.94,19.84-5.47,29.88-2.19,14.36-1.09,28.62-1.53,42.92-.16,5.39,.11,10.7,1.37,16.11,1.27,5.48,1.39,11.29,2.17,16.95,2,14.54,5.61,28.68,9.82,42.64,5.79,19.21,12.48,38.14,21.56,56.11,.91,1.81,1.7,3.49-.41,4.99Z"/>
  <path class="cls-8" d="M775.44,936.93c-1.13-.52-2.77-.73-3.3-1.61-2.61-4.36-5.38-8.69-6.31-13.83,1.09,.46,2.7,.61,3.19,1.43,2.64,4.43,5.59,8.75,6.42,14.02Z"/>
  <path class="cls-8" d="M808.08,988.69c-3.09-1.68-5.62-3.79-5.77-7.69q5.22,1.59,5.77,7.69Z"/>
  <path class="cls-8" d="M813.91,994.45c-3.71-.13-5.66-2.06-5.84-5.77,3.71,.13,5.54,2.18,5.84,5.77Z"/>
  <path class="cls-8" d="M819.6,1004.12c-3.45-1.54-4.08-4.47-3.85-7.83,3.46,1.54,4.08,4.47,3.85,7.83Z"/>
  <path class="cls-8" d="M802.32,981.01c-3.5-1.45-4.04-4.39-3.85-7.69,3.49,1.46,4.05,4.38,3.85,7.69Z"/>
  <path class="cls-8" d="M786.96,957.97c-2.59-1.08-3.85-3.05-3.85-5.84q3.61,1.22,3.85,5.84Z"/>
  <path class="cls-8" d="M798.48,973.33q-3.61-1.12-3.85-5.77c2.56,1.07,3.84,3,3.85,5.77Z"/>
  <path class="cls-8" d="M794.64,967.57q-3.61-1.12-3.85-5.77c2.56,1.07,3.83,3,3.85,5.77Z"/>
  <path class="cls-8" d="M781.28,946.46c-2.56-.01-3.83-1.36-3.99-3.85,2.56,.01,3.82,1.36,3.99,3.85Z"/>
  <path class="cls-8" d="M790.8,961.81c-2.52-.05-3.78-1.35-3.85-3.85,2.52,.05,3.78,1.35,3.85,3.85Z"/>
  <path class="cls-8" d="M765.85,921.5c-.64-.65-1.29-1.31-1.93-1.96,.64,.65,1.29,1.31,1.93,1.96Z"/>
  <path class="cls-8" d="M762.01,913.89c-.65-.68-1.29-1.35-1.94-2.03,.65,.68,1.29,1.35,1.94,2.03Z"/>
  <path class="cls-14" d="M264.47,1056.35c.1-3.17,.3-6.34,.3-9.52-.04-33.67-.11-67.33-.18-101,.08-2.55-.03-5.13,.29-7.65,1.21-9.5,7.06-14.74,16.66-15.07,1.91-.07,3.83-.02,5.75-.02,76.96,0,153.92,0,230.89,0,1.92,0,3.83-.04,5.75,.02,9.5,.28,16.19,6.43,17.09,15.81,.21,2.22,.09,4.47,.09,6.7,0,16.29-.01,32.57,.02,48.86,0,3.19,.18,6.37,.28,9.56-.03,.75-.05,1.49-.08,2.24,.05,28.38,.09,56.75,.14,85.13-.51,7.35-.58,14.7,.03,22.04-.04,1.27-.09,2.55-.13,3.82-.63,1.46-1.31,2.89-1.87,4.37-2.26,5.94-6.79,9.04-12.82,10.07-2.48,.42-5.05,.37-7.59,.43-6.66,.15-13.33,.24-19.99,.35-4.46-.64-8.92-.52-13.38,.07-2.86-.14-5.71-.39-8.57-.39-51.3-.02-102.59-.02-153.89,0-2.86,0-5.72,.22-8.58,.34-2.6-.02-5.2-.04-7.8-.05-6.67-.1-13.35-.18-20.02-.31-2.54-.05-5.12,.02-7.6-.42-8.3-1.46-13.45-7.07-14.41-15.46-.25-2.2-.34-4.43-.5-6.64-.01-1.29-.03-2.59-.04-3.88,.84-16.46,.49-32.92,.19-49.39Zm138.41-44.89h0c-3.51,0-7.02,0-10.53,0-.64,0-1.28-.02-1.91,.04-4.45,.4-6.64,2.18-6.83,6.43-.27,6.05-.25,12.13-.05,18.19,.15,4.46,2.12,6.78,6.34,6.92,8.61,.28,17.23,.29,25.84,0,4.21-.14,6.31-2.58,6.46-6.85,.2-5.74,.22-11.49,.03-17.23-.17-5.25-2.34-7.23-7.85-7.46-3.82-.16-7.66-.03-11.49-.03Z"/>
  <path class="cls-2" d="M541.48,1113.45c-.62-7.35-.54-14.69-.03-22.04,20.02-6.04,39.23-14.05,57.77-23.72,2.78-1.45,5.68-2.68,8.52-4.01,5.26,2.59,11.16,2.22,16.71,3.57,13.44,3.28,26.44,7.52,37.78,15.67,9.48,6.81,17.64,14.84,21.29,26.36,2.52,7.95,4.56,15.99,2,24.4-.27,.88-.05,1.9-.05,2.86-.16,1.23-.32,2.46-.47,3.7-1.61,1.28-1.53,3.35-2.34,4.99-3.15,6.4-5.26,13.41-10.67,18.5-.63-4.29-2.77-7.76-5.81-10.75-2.96-2.92-5.77-5.99-8.84-8.8-6.95-6.36-15.06-10.68-24.15-13.11-1.13-.3-2.47,.12-3.7,.28-.26,.03-.68,.39-.68,.59,.01,.58,.02,1.52,.35,1.68,1.99,.97,4.03,1.86,6.12,2.59,14.12,4.93,24.92,13.88,32.6,26.7,.63,1.05,1.7,1.84,2.57,2.74-.71,2.95-2.93,4.89-4.83,7.01-12.65,14.14-27.1,26.13-43.49,35.67-9.91,5.77-20.06,11.14-30.11,16.69-.76,.48-1.49,1.34-2.27,1.4-15.79,1.03-30.75,5.61-45.57,10.72-7.85,2.71-15.65,5.58-23.41,8.51-7.76,2.93-15.53,3.46-23.43,.71-6.38-1.85-12.45-4.43-18.3-7.57-2.2-1.18-4.36-2.6-7.01-2.66,.05-1.91,.26-3.88-1.57-5.23-1.54-1.13-3-2.46-4.68-3.32-7.99-4.08-15.06-9.59-22.6-14.37-14-8.87-27.97-17.79-41.92-26.75-1.59-1.02-3.05-2.29-4.39-3.62-.71-.7-.57-1.89,.18-2.54,.95-.82,2.07-1.48,3.21-2.03,18.68-9.05,37.31-18.19,56.09-27.04,8.64-4.08,17.55-7.59,26.35-11.34,5.52-2.35,11.41-3.86,16.39-7.39,6.66-.11,13.33-.2,19.99-.35,2.53-.06,5.11,0,7.59-.43,6.03-1.03,10.57-4.13,12.82-10.07,.56-1.48,1.25-2.92,1.87-4.37,1.27-.1,2.62,.05,3.79-.35,16.82-5.78,34.03-10.09,51.5-13.37,.6-.11,1.19-.45,1.72-.78,1.16-.73,1.98-1.85,1.39-3.14-.29-.63-1.63-1.29-2.32-1.14-4.64,1.01-9.19,2.46-13.85,3.34-14.35,2.73-28.18,7.33-42.09,11.61Z"/>
  <path class="cls-1" d="M302.26,749.17c1.56-.78,3.13-1.56,4.69-2.33-.04,1.59,.09,3.21-.16,4.77-3.46,21.57-.35,42.58,5.33,63.38,.75,2.76,1.38,5.56,2.07,8.34-21.3,1.55-42.6,3.18-63.51,7.9-5.24,1.18-10.43,2.55-16.01,3.92-.91-3.01,1.12-4.39,2.35-5.9,14.33-17.53,28.76-34.98,43.08-52.51,7.46-9.13,14.78-18.37,22.16-27.56Z"/>
  <path class="cls-6" d="M541.31,1006.28c.03-.75,.05-1.49,.08-2.24,9.78-5.33,19.44-10.76,27.93-18.15,5.3-4.61,10.41-9.32,14.85-14.77,1.19-1.47,2.57-2.8,3.99-4.05,.23-.21,1.11,.23,1.63,.49,.18,.09,.31,.61,.22,.82-.38,.85-.77,1.72-1.31,2.46-6.68,9.06-15.02,16.42-24.07,22.96-4.63,3.35-9.57,6.28-14.47,9.24-2.71,1.63-5.49,3.29-8.84,3.25Z"/>
  <path class="cls-6" d="M191.85,879.9c-.27-.19-.59-.32-.75-.55-.16-.23-.33-.66-.22-.83,.63-1.06,1.22-2.18,2.04-3.08,7.08-7.73,14.22-15.41,21.3-23.13,3.86-4.21,7.64-8.51,11.5-12.72,.63-.68,1.47-1.18,2.25-1.71,.66-.45,1.35-.34,1.59,.35,.18,.52,.25,1.36-.05,1.71-3.48,4.13-6.94,8.27-10.58,12.25-7.71,8.45-15.49,16.83-23.29,25.19-1.03,1.11-1.92,2.62-3.78,2.53Z"/>
  <path class="cls-9" d="M152.89,934.21c7.5-5.98,16.6-7.63,25.65-8.79,6.23-.8,12.69-.62,18.97,0,5.88,.58,11.95,1.65,16.02,6.87-.3,.39-.6,.77-.9,1.14-.9-.3-1.87-.49-2.71-.91-10.98-5.51-22.31-6.28-34.29-3.69-7.5,1.62-14.47,4.71-21.86,6.52-.3-.38-.59-.76-.88-1.15Z"/>
  <path class="cls-9" d="M665.93,996.24c-.19,.84-.38,1.68-.57,2.52-6.57-2.11-13.17-4.13-19.69-6.37-7.45-2.55-14.78-2.53-22.11,.35-1.75,.69-3.5,1.38-5.26,2.06-.31-.38-.61-.77-.9-1.16,6.27-6.68,14.14-7.45,22.56-6.03,9.09,1.54,17.35,5.62,25.96,8.61Z"/>
  <path class="cls-9" d="M606.11,1046.6c-7.6-13.66-8.21-27.32,.03-40.97,.38,.34,.76,.69,1.13,1.02-.58,2.15-1,4.35-1.73,6.44-2.5,7.09-3.15,14.2-.98,21.52,1.08,3.65,1.81,7.4,2.7,11.11-.38,.29-.76,.58-1.14,.87Z"/>
  <path class="cls-9" d="M199.49,766.05c-.05-1.25-.49-2.66-.07-3.73,2.43-6.21,1.93-12.34-.04-18.52-.27-.84,.06-1.86,.11-2.8,.74,.57,1.91,1,2.16,1.73,2.71,8.06,3.88,16.04-2.16,23.31Z"/>
  <path class="cls-9" d="M186.03,779.47c2.6-3.36,4.73-7.32,9.68-7.73-1.48,4.76-4.04,8.18-9.68,7.73Z"/>
  <path class="cls-9" d="M143.24,939.92c2.12-3.75,5.86-4.77,9.65-5.7,.28,.38,.58,.76,.87,1.14-2.61,2.91-6.05,4.42-9.63,5.7-.3-.37-.6-.75-.89-1.13Z"/>
  <path class="cls-9" d="M174.52,787.14c2.22-3.61,5.6-5.29,9.67-5.81-1.36,5.04-5.25,5.87-9.67,5.81Z"/>
  <path class="cls-9" d="M228.52,950.05c-1.23,.16-2.46,.32-3.68,.48-.9-2.53-1.8-5.06-2.7-7.59,.38-.3,.76-.6,1.15-.9,3.26,1.68,4.22,4.87,5.24,8.01Z"/>
  <path class="cls-9" d="M135.58,945.83c1.33-3.56,4.22-5.09,7.67-5.9,.28,.38,.58,.76,.88,1.13-2.05,2.57-4.39,4.75-7.58,5.85-.32-.36-.65-.72-.98-1.08Z"/>
  <path class="cls-9" d="M606.13,1005.63c.48-2.47,1.76-4.38,3.92-5.7,.36,.32,.73,.63,1.09,.93-.65,2.36-1.51,4.58-3.87,5.8-.38-.35-.76-.69-1.14-1.03Z"/>
  <path class="cls-9" d="M618.28,1056.35c-1.4,2.09-3.47,3.04-5.84,3.49-.2-1.19-.4-2.38-.61-3.57,.37-.36,.75-.72,1.11-1.08,1.77,.39,3.55,.77,5.33,1.15Z"/>
  <path class="cls-9" d="M611.83,1056.27c-2.01-1.46-3.4-3.33-3.75-5.86,.37-.33,.73-.67,1.08-1,2.38,1.19,3.2,3.4,3.79,5.77-.37,.36-.74,.72-1.12,1.08Z"/>
  <path class="cls-9" d="M220.94,938.47c1.4,.78,1.84,2.19,2.33,3.57-.38,.29-.76,.59-1.14,.89-.77-1.16-1.55-2.32-2.32-3.48,.38-.32,.75-.64,1.12-.97Z"/>
  <path class="cls-9" d="M213.52,932.29c1.37,.49,2.8,.91,3.55,2.34-.32,.37-.64,.74-.95,1.11-1.17-.77-2.34-1.54-3.51-2.3,.31-.38,.61-.76,.91-1.15Z"/>
  <path class="cls-9" d="M195.65,771.81c-.47-1.87-.03-3.29,1.97-3.92,.39,1.83-.05,3.25-1.97,3.92Z"/>
  <path class="cls-9" d="M613.86,996.03c.77-1.41,2.18-1.86,3.55-2.36,.29,.38,.59,.77,.89,1.15-1.17,.76-2.34,1.52-3.51,2.29-.31-.36-.62-.72-.93-1.07Z"/>
  <path class="cls-9" d="M608.08,1050.41c-1.33-.93-1.74-2.33-1.97-3.82,.38-.29,.76-.58,1.13-.86,.64,1.23,1.29,2.45,1.93,3.68-.36,.34-.73,.67-1.09,1Z"/>
  <path class="cls-9" d="M132.57,951.96c-.78-.36-1.57-.72-2.35-1.08,.48-.4,.95-.8,1.43-1.2,.39,.34,.78,.68,1.17,1.02-.07,.42-.15,.84-.25,1.26Z"/>
  <path class="cls-9" d="M131.65,949.68c.66-.64,1.32-1.28,1.97-1.92,.34,.34,.68,.68,1.02,1.02-.61,.64-1.22,1.28-1.82,1.92-.39-.34-.78-.68-1.17-1.02Z"/>
  <path class="cls-9" d="M133.63,947.76c.65-.64,1.31-1.28,1.96-1.93,.32,.35,.65,.71,.97,1.07-.64,.62-1.27,1.25-1.9,1.88-.34-.34-.68-.68-1.02-1.02Z"/>
  <path class="cls-9" d="M184.12,781.39c.06-1.27,.79-1.86,1.99-1.99,.08,1.41-.67,1.98-1.99,1.99Z"/>
  <path class="cls-9" d="M217.08,934.63c.66,.63,1.31,1.27,1.97,1.9-.33,.32-.65,.64-.97,.96-.65-.58-1.3-1.16-1.95-1.75,.31-.38,.63-.75,.96-1.12Z"/>
  <path class="cls-9" d="M219.04,936.53c.63,.65,1.26,1.3,1.9,1.94-.37,.33-.74,.65-1.11,.97-.58-.65-1.17-1.3-1.76-1.95,.32-.32,.65-.64,.97-.96Z"/>
  <path class="cls-9" d="M610.05,999.93c.62-.67,1.25-1.33,1.87-2,.33,.33,.66,.67,.99,1-.59,.65-1.17,1.29-1.76,1.94-.37-.31-.74-.62-1.1-.93Z"/>
  <path class="cls-9" d="M197.57,767.95c.05-1.27,.59-2.05,1.98-1.98-.07,1.25-.63,2.01-1.98,1.98Z"/>
  <path class="cls-9" d="M611.92,997.93c.65-.63,1.3-1.27,1.94-1.9,.31,.35,.62,.71,.92,1.06-.63,.61-1.25,1.22-1.88,1.84-.33-.33-.66-.66-.99-1Z"/>
  <path class="cls-2" d="M264.32,1109.62c.16,2.21,.25,4.44,.5,6.64,.96,8.39,6.12,14.01,14.41,15.46,2.48,.44,5.06,.36,7.6,.42,6.67,.14,13.35,.21,20.02,.31,1.06,2.59,3.43,3.58,5.66,4.85,6.35,3.61,12.64,7.33,18.94,11.04,17.52,10.32,34.85,20.95,51.93,32,20.01,12.94,40.24,25.54,60.36,38.3,1.07,.68,2,1.59,3.08,2.26,1.88,1.17,2.42,2.95,2.19,4.93-.22,1.87-.67,3.74-1.25,5.53-6.32,19.6-15.69,37.49-29.95,52.57-1.8,1.9-3.39,3.81-3.45,6.58-5.75-.26-11.44-.66-17.14-1.76-8.76-1.69-17.65-2.7-26.49-4-17.98-4.03-35.95-8.08-53.94-12.08-4.93-1.1-9.6-3.38-14.8-3.27-1.02-.17-2.05-.34-3.07-.52-.46-.43-.85-1.09-1.39-1.26-9.35-3.02-18.72-5.98-28.09-8.96-.92-.94-2.08-.95-3.27-.82-1.22-1.62-3.07-2.14-4.83-2.9-10.24-4.41-20.47-8.86-30.65-13.43-1.78-.8-3.53-1.41-5.45-1.54-1.39-1.82-3.34-2.87-5.32-3.93-14.34-7.69-27.84-16.65-40.24-27.18-10.2-8.68-19.48-18.23-25.8-30.25,3.32-.04,5.04-2.34,6.68-4.73,7.18-10.47,16.61-18.1,28.49-22.72,2.35-.91,4.57-2.21,6.78-3.47,.87-.5,1.07-1.57,.51-2.41-.29-.43-1.19-.87-1.61-.73-5.66,1.97-11.53,3.43-16.61,6.8-10.18,6.76-18.53,15.32-24.9,25.77-12.89-19.1-15.31-39.55-7.21-61.01,4.13-10.94,11.35-20,20.28-27.47,10.1-8.45,21.32-15.1,33.72-19.75,16.22-6.08,32.84-10.3,50.19-11.38,4.76-.3,9.4-2.04,14.25-1.16,.3,16.46,.65,32.93-.19,49.39-7.52-3.5-15.03-7.01-22.57-10.47-1.73-.79-3.49-1.53-5.29-2.11-.41-.13-1.39,.38-1.52,.78-.25,.83-.28,1.83-.06,2.67,.13,.48,.86,.9,1.41,1.16,6.92,3.31,13.86,6.55,20.77,9.88,2.33,1.12,4.63,2.18,7.3,1.98Z"/>
  <path class="cls-7" d="M218.07,937.5c.59,.65,1.18,1.29,1.76,1.95,.77,1.17,1.54,2.33,2.31,3.49,.9,2.53,1.8,5.06,2.7,7.59-7.33,2.42-15.05,2.15-22.56,2.77-15.46,1.29-30.96,2.61-46.52,2.38-6.37-.1-12.65-.8-18.89-1.91-1.49-.27-2.87-1.19-4.3-1.8,.1-.42,.18-.84,.25-1.26,.61-.64,1.22-1.28,1.83-1.92,.64-.62,1.27-1.25,1.91-1.88,3.19-1.1,5.53-3.28,7.58-5.85,3.58-1.27,7.02-2.79,9.63-5.7,7.39-1.8,14.36-4.89,21.86-6.51,11.98-2.59,23.31-1.83,34.29,3.69,.84,.42,1.8,.61,2.71,.91,1.17,.77,2.34,1.53,3.51,2.3,.64,.59,1.29,1.17,1.94,1.76Z"/>
  <path class="cls-8" d="M95.84,1186.4c.17-3.34,2.12-5.97,3.51-8.82,7.57-15.55,12.6-31.88,15.91-48.86,1.17-6,.73-12.17,2.09-17.93,1.89-7.97,1.23-15.85,1.5-23.78,.1-2.87,.03-5.72-1.02-8.5-.55-1.46-.76-3.1-.82-4.68-.78-18.96-5.23-37.06-12.47-54.54-.23-.56-.27-1.23-.27-1.85,0-.24,.35-.66,.58-.68,.56-.06,1.35-.16,1.67,.15,.67,.64,1.26,1.47,1.6,2.34,4.9,12.49,7.41,25.64,10.69,38.57-.79,6.46,2.5,12.44,2.08,18.93-.42,6.36-.24,12.78-.05,19.17,.76,25.57-4.74,49.86-14.39,73.41-1.94,4.73-3.87,9.42-6.2,13.97-.96,1.88-2.26,3.02-4.4,3.14,0,0-.02-.02-.02-.02Z"/>
  <path class="cls-12" d="M153.24,1177.13c6.37-10.45,14.72-19.01,24.9-25.77,5.07-3.37,10.95-4.83,16.61-6.8,.42-.15,1.32,.3,1.61,.73,.56,.84,.36,1.91-.51,2.41-2.2,1.26-4.42,2.55-6.78,3.47-11.88,4.61-21.3,12.24-28.49,22.72-1.64,2.39-3.37,4.69-6.68,4.73-.42-.4-.64-.89-.66-1.48Z"/>
  <path class="cls-8" d="M102.98,1007.63c-.33,.48-.47,.9-.68,.94-.55,.11-1.43,.29-1.66,0-2.05-2.45-3.61-5.19-4.07-8.42-.03-.22,.29-.67,.51-.71,.55-.11,1.42-.3,1.65-.02,2.08,2.45,3.39,5.3,4.25,8.2Z"/>
  <path class="cls-8" d="M72.83,965.62c4.33,1.41,5.5,2.46,4.85,4.25-.1,.27-.38,.56-.65,.65-1.71,.57-2.75-.63-4.25-4.86,0,0,.05-.05,.05-.05Z"/>
  <path class="cls-8" d="M93.92,992.54c-.82-.26-1.77-.34-2.42-.82-.77-.58-.86-1.56,.14-2.08,.34-.18,1.26,.11,1.47,.45,.44,.71,.57,1.61,.83,2.43l-.02,.02Z"/>
  <path class="cls-8" d="M93.94,1192.17c-.26,.82-.39,1.72-.83,2.43-.21,.35-1.13,.63-1.47,.46-1-.51-.92-1.5-.15-2.08,.65-.48,1.6-.56,2.42-.82,0,0,.02,.02,.02,.02Z"/>
  <path class="cls-8" d="M85.73,1202.49c.54,.24,1.38,.36,1.53,.74,.15,.39-.27,1.34-.66,1.49-.39,.15-1.04-.38-1.58-.62,.24-.54,.47-1.08,.71-1.62Z"/>
  <path class="cls-8" d="M79.96,1210.24c.54,.23,1.08,.46,1.61,.69-.23,.54-.35,1.37-.74,1.53-.38,.16-1.04-.37-1.58-.6,.23-.54,.47-1.08,.7-1.61Z"/>
  <path class="cls-8" d="M74.2,1217.92c.54,.23,1.08,.46,1.61,.69-.23,.54-.35,1.37-.74,1.53-.38,.16-1.04-.37-1.58-.6,.23-.54,.47-1.08,.71-1.61Z"/>
  <path class="cls-8" d="M63.93,1231.09c.24-.54,.36-1.37,.76-1.53,.37-.16,1.04,.38,1.57,.61-.24,.54-.36,1.37-.75,1.53-.38,.16-1.04-.38-1.58-.61Z"/>
  <path class="cls-8" d="M86.98,985.37c.23-.54,.47-1.08,.71-1.62,.54,.24,1.38,.36,1.52,.74,.15,.39-.38,1.05-.62,1.58-.54-.24-1.08-.47-1.61-.71Z"/>
  <path class="cls-8" d="M85.56,978.6c-.23,.54-.46,1.08-.69,1.61-.54-.23-1.37-.35-1.53-.73-.16-.38,.38-1.04,.6-1.58,.54,.23,1.08,.46,1.62,.7Z"/>
  <path class="cls-8" d="M93.92,1192.16c.06-2.11-.34-4.38,1.92-5.75,0,0,.02,.02,.02,.02-.06,2.11,.34,4.38-1.92,5.75,0,0-.02-.02-.02-.02Z"/>
  <path class="cls-8" d="M93.94,992.51c.27,.15,.79,.37,.77,.46-.15,.66-.46,.51-.79-.43,0,0,.02-.02,.02-.02Z"/>
  <path class="cls-7" d="M612.91,998.93c.62-.62,1.25-1.23,1.88-1.84,1.18-.75,2.35-1.52,3.52-2.28,1.75-.69,3.51-1.37,5.26-2.06,7.33-2.88,14.66-2.91,22.11-.35,6.52,2.24,13.12,4.25,19.69,6.37-.84,8.11-5.09,14.79-9.12,21.54-1.77,2.96-3.76,5.79-5.65,8.68-.62,.69-1.23,1.37-1.85,2.06-9.43,9.31-19.09,18.34-30.46,25.31-1.78-.38-3.56-.76-5.33-1.15-.58-2.38-1.4-4.59-3.78-5.78-.64-1.23-1.29-2.46-1.92-3.69-.88-3.71-1.61-7.47-2.69-11.12-2.17-7.32-1.52-14.43,.98-21.52,.74-2.09,1.16-4.3,1.73-6.44,2.37-1.21,3.23-3.43,3.88-5.8,.6-.64,1.18-1.28,1.77-1.93Z"/>
  <path class="cls-1" d="M303.1,420.96c-.77,6.71-7.78,13.28-13.38,12.55-7.76-1.02-14.03-8.17-13.04-14.87,.99-6.69,8.33-12.3,15.1-11.54,7.15,.81,12.12,6.9,11.32,13.86Z"/>
  <path class="cls-1" d="M329.58,407.08c6.56,.22,13.53,6.55,13.63,12.37,.12,7.15-6.54,13.95-13.87,14.16-6.11,.17-12.78-7.34-12.67-14.28,.11-7.1,5.79-12.49,12.91-12.25Z"/>
  <path class="cls-1" d="M262.9,419.3c.07,7.02-6.34,14.48-12.52,14.3-4.8-.15-12.84-6.78-12.62-12.44,.31-8.19,4.81-13.91,12.34-14.09,7.42-.17,12.73,4.9,12.8,12.23Z"/>
  <path class="cls-15" d="M1074.07,1299.4c3.11-3.32,7.54-4.59,11.15-7.16,6.71-4.77,13.49-9.45,20.23-14.17,.03,2.5,1.08,5.58-1.08,7.23-2.97,2.27-5.16,5.76-9.18,6.53-1.86,.36-4.11,.14-5.21,1.87-3.87,6.12-9.69,6.39-15.92,5.7Z"/>
  <path class="cls-15" d="M1118.56,1264.92c5.2-7.9,10.4-15.81,15.6-23.72,.85,4.89-.4,9.2-3.37,13.17-1.48,1.98-2.78,4.16-3.79,6.42-1.71,3.85-4.71,4.64-8.44,4.13Z"/>
  <path class="cls-15" d="M1043.13,1309.4c4.15,.31,7.8-1.58,11.63-2.67,3.54-1.01,7.01-2.24,10.51-3.38-.62,2.64-1.25,5.29-1.87,7.93-5.89,1-11.81,.44-17.73,.32-1.4-.03-2.26-.82-2.55-2.2Z"/>
  <path class="cls-1" d="M1256.43,1263.18c2.67,1.02,5.54,2.06,8.36,3.25,.36,.15,.48,1,.58,1.54,.03,.16-.44,.59-.66,.58-3.43-.19-6.56-1.36-9.49-3.1-.2-.12-.38-.69-.27-.84,.3-.43,.76-.76,1.48-1.43Z"/>
  <path class="cls-1" d="M1292.79,1275.77c-4.88,1.63-8.08-.63-11.35-2.52-.15-.09-.16-.6-.07-.85,.1-.27,.43-.66,.63-.64,3.67,.35,7.19,1.15,10.79,4.02Z"/>
  <path class="cls-1" d="M1189.26,1242.24c-.15,.24-.27,.66-.46,.69-2.82,.44-5.24-.42-7.22-2.45-.14-.14-.07-.6,.04-.84,.13-.26,.46-.63,.66-.6,2.46,.25,4.79,.9,6.86,2.31,.16,.11,.08,.59,.11,.9Z"/>
  <path class="cls-1" d="M1303.93,1278.61c-.36,.63-.6,1.48-.89,1.49-.91,.04-1.9-.07-2.73-.42-.83-.35-1.63-1.21-1.13-2.15,.5-.95,1.67-.91,2.56-.5,.81,.37,1.47,1.05,2.19,1.59Z"/>
  <path class="cls-1" d="M1150.52,1229.16c.23-.54,.36-1.37,.74-1.52,.39-.15,1.33,.27,1.49,.65,.15,.38-.27,1.34-.65,1.48-.39,.15-1.04-.38-1.58-.62Z"/>
  <path class="cls-1" d="M1321.14,1285.54c-.54-.23-1.36-.35-1.52-.73-.16-.37,.37-1.03,.6-1.57,.54,.23,1.36,.34,1.52,.73,.16,.38-.37,1.04-.6,1.57Z"/>
  <path class="cls-1" d="M1342.99,1291.51c-.23,.53-.35,1.37-.72,1.51-.4,.15-1.04-.38-1.58-.61,.23-.53,.34-1.38,.72-1.51,.4-.15,1.04,.37,1.58,.61Z"/>
  <path class="cls-1" d="M1165.88,1234.92c.23-.53,.35-1.37,.74-1.52,.39-.15,1.33,.27,1.49,.65,.15,.38-.27,1.34-.65,1.48-.39,.15-1.04-.38-1.58-.62Z"/>
  <path class="cls-15" d="M592,1225.03c10.04-5.55,20.19-10.92,30.11-16.69,16.39-9.54,30.84-21.54,43.49-35.67,1.9-2.12,4.12-4.06,4.83-7.01,.52-.64,1.03-1.28,1.55-1.92,5.41-5.09,7.52-12.1,10.67-18.5,.81-1.65,.73-3.72,2.34-4.99,2.15,1.12,2.76,3.37,3.77,5.29,1.92,3.62,3.76,7.28,5.53,10.98,.91,1.9,2.28,2.94,4.36,3.07,1.29,3.16,3.65,5.88,3.83,9.49-1.1,.79-1.85,1.91-1.23,3.15,3.56,7.25,7.23,14.45,10.88,21.67,.8,1.57,2.27,1.99,3.87,2.14,1.49,.82,1.81,2.22,1.84,3.76-.14,3.79,.74,7.18,3.85,9.68h0c.89,5.23,3.79,9.58,6.47,13.98,.49,.81,2.11,.94,3.21,1.38,1.74,1.17,1.84,2.96,1.84,4.79,0,1.83,.11,3.63,1.85,4.79,.16,2.49,1.43,3.83,3.99,3.85,1.49,.82,1.81,2.22,1.84,3.75-.21,2.78,.49,5.31,2,7.66,.91,1.41,2.23,1.87,3.77,2.02h0c.1,4.29,.46,8.43,5.77,9.6h0q.24,4.64,3.85,5.76s0,0,0,0c-.09,4.85,1.41,8.9,5.77,11.53h0c.01,2.76,1.29,4.69,3.85,5.76h0c.01,2.76,1.29,4.69,3.85,5.76h0c.08,2.53,1.39,3.81,3.93,3.84,.61,.61,1.22,1.23,1.83,1.84-.2,3.32,.32,6.29,3.85,7.76h0c0,2.76,1.3,4.69,3.85,5.76,0,0-.01-.01-.01-.01,0,.67,0,1.35,0,2.02-2.54,.17-5.08,.49-7.62,.49-52.77,.03-105.55,.03-158.32,0-2.73,0-5.46-.26-8.27-.4,.42-2.97,2.58-3.16,4.12-3.91,21.18-10.29,28.98-34.16,21.01-55.43-5.75-15.34-16.78-23.58-32.95-25.37-3.04-.34-6.44,1.02-9.07-1.64Z"/>
  <path class="cls-15" d="M370.74,1284.74c8.84,1.3,17.72,2.32,26.49,4,5.7,1.1,11.39,1.5,17.14,1.76,1.29,.22,2.58,.44,3.87,.66,7.65,1.02,15.15,3.33,22.99,2.53,3.49,2.63,7.82,2.22,11.75,3,10.12,1.99,20.08,5.02,30.5,5.36,5.4,2.79,11.45,3.57,17.12,5.53,2.33,.81,4.73,1.43,7.08,2.13,.03,2.51-1.69,1.95-2.56,1.96-8.29,.12-16.59,.12-24.88,.12-58.38,0-116.76,.01-175.14-.02-3.47,0-7.02,.5-10.4-.82,.91-1.75,2.65-1.5,4.15-1.79,18.47-3.63,36.76-7.96,54.21-15.22,6.14-2.56,12.56-4.64,17.68-9.2Z"/>
  <path class="cls-3" d="M483.48,1302.05c-10.42-.34-20.37-3.37-30.5-5.36-3.93-.77-8.26-.36-11.75-2.99,.24-1.99,1.24-3.56,2.58-5.01,1.73-1.87,3.46-3.77,4.98-5.81,7.44-10.07,12.93-21.26,18.14-32.58,1.99-4.33,3.7-8.85,3.45-13.8,.56-.05,1.11-.17,1.64-.37,2.65,.06,4.81,1.48,7.01,2.66,5.85,3.14,11.92,5.72,18.3,7.57-1.22,7.21-.38,14.54-1.72,21.81-2.22,12-5.85,23.38-12.12,33.88Z"/>
  <path class="cls-9" d="M551.35,1299.62c-1.45-1.96-.74-3.89-.37-5.7,3.11-15.18,2.12-29.8-5.55-43.6-.29-.53-.47-1.23-.39-1.81,.07-.51,.52-1.01,.89-1.43,.08-.09,.67,.11,.85,.33,.81,.96,1.7,1.89,2.3,2.98,4.16,7.38,5.81,15.41,6.4,23.79,.47,6.75-.24,13.39-1.11,20.02-.27,2.08-.78,4.29-3.02,5.42Z"/>
  <path class="cls-9" d="M266.19,1257.83c1.19-.13,2.34-.12,3.27,.82,2.41,8.87,4.82,17.74,7.22,26.61,.41,1.52,.84,3.05,1.07,4.6,.07,.46-.42,1.33-.83,1.46-.45,.14-1.12-.32-1.64-.61-.25-.14-.48-.47-.55-.75-2.8-10.72-6.58-21.18-8.54-32.13Z"/>
  <path class="cls-9" d="M577.31,1265.08c-2.36-6.83-3.76-14-7.43-20.36-.22-.38,0-1.33,.36-1.67,.9-.87,1.7-.14,2.17,.59,4.12,6.51,6.87,13.49,7.02,21.32-.71,.04-1.41,.08-2.12,.11Z"/>
  <path class="cls-9" d="M298.94,1268.88c1.02,.17,2.05,.34,3.07,.52,1.13,4.62,2.29,9.22,3.35,13.85,.11,.5-.27,1.54-.62,1.64-.96,.28-1.61-.4-1.94-1.32-1.73-4.78-3.22-9.62-3.85-14.69Z"/>
  <path class="cls-9" d="M579.41,1284.45c.59,3.56-.94,6.74-1.85,10.02-.22,.78-.68,1.15-1.41,.81-.49-.22-1.27-.79-1.21-1.06,.69-3.32,.32-6.89,2.32-9.9,.72,.04,1.43,.08,2.15,.12Z"/>
  <path class="cls-10" d="M579.41,1284.45c-.72-.04-1.43-.08-2.15-.12,.02-6.41,.04-12.83,.05-19.24,.71-.04,1.41-.08,2.12-.12,.79,6.49,.79,12.99-.02,19.48Z"/>
  <path class="cls-8" d="M783.11,1311.29c0-.67,0-1.35,0-2.02,1.64,.02,3.08,.42,3.88,2.04-1.3,.56-2.59,.53-3.88-.01Z"/>
  <path class="cls-6" d="M425.46,725.87c-.63-.25-1.79-.35-2.28-.98-.81-1.04-.5-2.36,.3-3.44,2.76-3.72,6.67-5.62,10.95-6.9,1.9-.57,3.91,.52,4.62,2.28,.69,1.71,.03,3.12-1.24,4.16-2.79,2.29-8.96,4.69-12.35,4.87Z"/>
  <path class="cls-6" d="M456.53,727.4c2.64,2.72,4.09,5.6,7.46,6.12,2.31,.35,3.77,2.17,4.13,4.61,.23,1.52-.55,2.65-3.76,5.79-.16-.24-.48-.52-.44-.73,.34-1.8,1.29-3.7,.97-5.36-.38-2.02-2.8-2.12-4.51-2.88-2.93-1.31-2.85-1.48-3.86-7.55Z"/>
  <path class="cls-6" d="M386.83,755.62c-1.97-.38-2.13-2.11-2.71-3.46-1.52-3.59-4.14-5.45-8.09-5.58-.91-.03-2.89,.63-2.28-1.53,.15-.55,1.61-1.04,2.46-1.03,3.33,.03,6.27,1.22,8.36,3.87,1.74,2.22,3.58,4.55,2.26,7.74Z"/>
  <path class="cls-6" d="M448.05,758.99c1.46-3.92,3.77-4.07,5.95-4.32,3.57-.41,6.96,.21,9.94,2.32,.28,.2,.19,1.04,.12,1.57-.02,.19-.59,.51-.77,.44-4.78-1.95-9.67-2.5-15.25,0Z"/>
  <path class="cls-6" d="M440.52,729.34c1.88-.04,3.8,1.58,3.92,3.31,.15,2.15-2.01,4.29-4.15,4.13-1.87-.14-3.38-1.88-3.35-3.86,.03-1.95,1.62-3.53,3.58-3.57Z"/>
  <path class="cls-6" d="M470.31,720.55c-.23,1.96-1.92,3.36-3.86,3.19-1.94-.17-3.55-1.86-3.49-3.64,.08-2.16,2.37-4.1,4.44-3.74,1.73,.3,3.12,2.31,2.9,4.2Z"/>
  <path class="cls-1" d="M343.84,666.56c-.41,.32-1.04,.99-1.19,.89-1.14-.74-.3-1.26,.31-1.78,.3,.29,.59,.58,.88,.89Z"/>
  <path class="cls-1" d="M332.59,653.37c-.56,.57-1.13,1.46-1.84,.27-.12-.2,.52-.85,.81-1.3,.35,.33,.7,.67,1.04,1.02Z"/>
  <path class="cls-1" d="M181.23,153.7c-25.56,0-51.13,.03-76.69-.02-8.49-.02-8.58-.11-8.6-8.55-.06-17.89-.03-35.79,0-53.68,0-1.91,.07-3.83,.28-5.73,.21-1.82,1.5-2.81,3.22-2.95,2.22-.19,4.47-.18,6.7-.18,50.81,0,101.62-.02,152.43,0,9.99,0,10.03,.06,10.05,9.97,.03,16.94,.01,33.87,0,50.81,0,1.92,.04,3.84-.09,5.75-.24,3.39-1.19,4.3-4.85,4.5-2.55,.14-5.11,.07-7.67,.07-24.93,0-49.85,0-74.78,0Z"/>
  <path class="cls-1" d="M300.31,76.9c-25.58,0-51.16,.03-76.74-.02-8.64-.02-8.74-.11-8.77-8.41-.06-18.22-.02-36.45,0-54.67,0-1.59,.06-3.2,.26-4.77,.23-1.78,1.43-2.86,3.18-3.01,2.22-.2,4.47-.22,6.7-.22,50.2-.01,100.4,0,150.6,0,1.92,0,3.84-.03,5.75,.1,3.03,.21,4.07,1.18,4.32,4,.14,1.59,.12,3.19,.12,4.79,0,17.9,.01,35.81-.01,53.71,0,1.91-.15,3.82-.38,5.72-.17,1.42-1.22,2.32-2.57,2.42-2.86,.23-5.73,.34-8.6,.35-24.62,.02-49.24,.01-73.86,.01Z"/>
  <path class="cls-8" d="M716,1196.02c-1.6-.15-3.08-.56-3.87-2.14-3.65-7.21-7.31-14.41-10.88-21.67-.61-1.24,.13-2.37,1.23-3.15,5.68,8.39,10.18,17.38,13.51,26.96Z"/>
  <path class="cls-8" d="M698.66,1159.57c-2.08-.13-3.45-1.17-4.36-3.07-1.77-3.7-3.61-7.36-5.53-10.98-1.02-1.91-1.63-4.16-3.77-5.29,.16-1.23,.31-2.46,.47-3.7,1.66,.18,3,.82,3.77,2.42,1.77,3.7,3.63,7.35,5.34,11.08,1.44,3.14,2.73,6.36,4.09,9.54Z"/>
  <path class="cls-8" d="M731.36,1224.81c-1.1-.44-2.71-.57-3.21-1.38-2.68-4.4-5.58-8.75-6.47-13.99,1.28,.16,2.69,.32,3.36,1.51,2.51,4.43,5.27,8.76,6.32,13.86Z"/>
  <path class="cls-8" d="M762.01,1278.56c-4.35-2.63-5.85-6.68-5.77-11.53,4.35,2.63,5.85,6.68,5.77,11.53Z"/>
  <path class="cls-8" d="M746.65,1251.68c-1.54-.15-2.86-.62-3.77-2.02-1.51-2.35-2.21-4.87-2-7.66,3.8,2.11,5.12,5.7,5.77,9.68Z"/>
  <path class="cls-8" d="M752.41,1261.28c-5.31-1.17-5.67-5.31-5.77-9.61,3.86,2.04,5.11,5.65,5.77,9.61Z"/>
  <path class="cls-8" d="M721.69,1209.45c-3.11-2.5-3.99-5.89-3.85-9.68,3.04,2.53,3.98,5.89,3.85,9.68Z"/>
  <path class="cls-8" d="M779.28,1303.51c-3.53-1.47-4.05-4.44-3.85-7.76,3.42,1.52,4.07,4.42,3.85,7.76Z"/>
  <path class="cls-8" d="M756.25,1267.04q-3.61-1.12-3.85-5.77c2.56,1.07,3.84,3,3.85,5.77Z"/>
  <path class="cls-8" d="M765.85,1284.32c-2.56-1.07-3.84-3-3.85-5.77q3.61,1.12,3.85,5.77Z"/>
  <path class="cls-8" d="M769.69,1290.08c-2.56-1.07-3.84-3-3.85-5.77q3.61,1.12,3.85,5.77Z"/>
  <path class="cls-8" d="M783.12,1309.28c-2.55-1.08-3.84-3-3.85-5.77q3.61,1.12,3.85,5.77Z"/>
  <path class="cls-8" d="M739.04,1238.25c-2.55-.02-3.82-1.36-3.99-3.85,2.56,.01,3.83,1.36,3.99,3.85Z"/>
  <path class="cls-8" d="M773.6,1293.91c-2.54-.03-3.85-1.31-3.93-3.85,2.54,.03,3.76,1.4,3.93,3.85Z"/>
  <path class="cls-11" d="M314.66,1132.51c2.86-.12,5.72-.34,8.58-.34,51.3-.02,102.59-.02,153.89,0,2.86,0,5.71,.26,8.57,.39-1.98,2.77-5.16,3.72-8.04,4.9-21.51,8.79-42.61,18.47-63.35,28.94-6.83,3.45-13.7,6.8-20.5,10.29-2.73,1.4-4.84,1.62-7.82-.24-19.14-11.95-38.61-23.37-57.68-35.42-4.53-2.86-10-4.26-13.64-8.53Z"/>
  <path class="cls-12" d="M314.66,1132.51c3.64,4.26,9.11,5.66,13.64,8.53,19.07,12.05,38.54,23.48,57.68,35.42,2.98,1.86,5.1,1.64,7.82,.24,6.8-3.5,13.68-6.85,20.5-10.29,20.74-10.47,41.83-20.15,63.35-28.94,2.88-1.18,6.06-2.12,8.04-4.9,4.46-.6,8.92-.71,13.38-.07-4.98,3.53-10.88,5.04-16.39,7.39-8.8,3.75-17.71,7.26-26.35,11.34-18.77,8.85-37.41,18-56.09,27.04-1.13,.55-2.26,1.21-3.21,2.03-.76,.66-.89,1.84-.18,2.54,1.34,1.33,2.8,2.6,4.39,3.62,13.95,8.95,27.92,17.87,41.92,26.75,7.54,4.78,14.61,10.29,22.6,14.37,1.69,.86,3.14,2.19,4.68,3.32,1.83,1.34,1.62,3.31,1.57,5.23-.53,.19-1.08,.31-1.64,.36-5.03-3.7-9.88-7.74-16.67-9.4-3.33,11.79-8.02,22.58-13.63,32.97-4.86,9-10.08,17.74-17.53,24.92-1.82,1.76-3.86,3.43-4.31,6.17-1.29-.22-2.58-.44-3.87-.66,.06-2.76,1.66-4.67,3.45-6.57,14.26-15.08,23.63-32.97,29.95-52.57,.58-1.79,1.03-3.66,1.25-5.53,.23-1.98-.31-3.76-2.19-4.93-1.08-.67-2.01-1.58-3.08-2.26-20.12-12.76-40.35-25.36-60.36-38.3-17.08-11.05-34.41-21.68-51.93-32-6.3-3.71-12.59-7.43-18.94-11.04-2.23-1.27-4.6-2.26-5.66-4.85,2.6,.02,5.2,.04,7.8,.05Z"/>
  <path class="cls-6" d="M402.88,1011.46c3.83,0,7.67-.13,11.49,.03,5.51,.23,7.67,2.2,7.85,7.46,.19,5.74,.18,11.49-.03,17.23-.15,4.27-2.25,6.71-6.46,6.85-8.61,.28-17.23,.27-25.84,0-4.22-.14-6.19-2.45-6.34-6.92-.21-6.06-.22-12.13,.05-18.19,.19-4.24,2.38-6.03,6.83-6.43,.63-.06,1.28-.04,1.91-.04,3.51,0,7.02,0,10.53,0h0Zm-.59,26.99s0-.01,0-.02c3.81,0,7.61,.05,11.42-.02,2.25-.04,3.58-1.45,3.64-3.55,.15-5.07,.14-10.15,0-15.21-.06-2.14-1.47-3.56-3.65-3.59-7.29-.1-14.59-.11-21.88-.02-2.16,.03-3.62,1.45-3.68,3.61-.14,5.07-.15,10.15,0,15.22,.06,2.12,1.47,3.51,3.69,3.56,3.49,.09,6.98,.02,10.47,.02Z"/>
  <path class="cls-12" d="M541.48,1113.45c13.92-4.28,27.74-8.89,42.09-11.61,4.66-.89,9.21-2.33,13.85-3.34,.69-.15,2.04,.51,2.32,1.14,.59,1.28-.24,2.41-1.39,3.14-.53,.33-1.12,.67-1.72,.78-17.47,3.28-34.68,7.58-51.5,13.37-1.16,.4-2.52,.25-3.79,.35,.04-1.27,.09-2.55,.13-3.82Z"/>
  <path class="cls-12" d="M264.32,1109.62c-2.67,.21-4.97-.86-7.3-1.98-6.9-3.33-13.85-6.57-20.77-9.88-.55-.26-1.29-.68-1.41-1.16-.22-.84-.19-1.84,.06-2.67,.12-.4,1.11-.91,1.52-.78,1.8,.58,3.57,1.32,5.29,2.11,7.53,3.47,15.05,6.98,22.57,10.47,.01,1.29,.02,2.59,.04,3.88Z"/>
  <path class="cls-12" d="M671.98,1163.73c-.52,.64-1.04,1.28-1.55,1.92-.86-.91-1.94-1.69-2.57-2.74-7.67-12.82-18.47-21.76-32.6-26.7-2.09-.73-4.13-1.62-6.12-2.59-.32-.16-.33-1.1-.35-1.68,0-.2,.42-.55,.68-.59,1.23-.16,2.57-.58,3.7-.28,9.09,2.43,17.2,6.75,24.15,13.11,3.06,2.8,5.87,5.88,8.84,8.8,3.05,3,5.18,6.46,5.81,10.75Z"/>
  <path class="cls-2" d="M418.24,1291.16c.45-2.74,2.49-4.41,4.31-6.17,7.45-7.18,12.67-15.92,17.53-24.92,5.61-10.39,10.3-21.18,13.63-32.97,6.79,1.66,11.63,5.69,16.67,9.4,.25,4.95-1.45,9.47-3.45,13.8-5.2,11.32-10.69,22.5-18.14,32.58-1.51,2.05-3.25,3.94-4.98,5.81-1.34,1.45-2.34,3.02-2.58,5.01-7.85,.8-15.35-1.52-23-2.54Z"/>
  <path class="cls-14" d="M402.29,1038.44c-3.49,0-6.98,.07-10.47-.02-2.22-.06-3.63-1.44-3.69-3.56-.15-5.07-.14-10.15,0-15.22,.06-2.16,1.51-3.58,3.68-3.61,7.29-.09,14.59-.07,21.88,.02,2.18,.03,3.59,1.45,3.65,3.59,.14,5.07,.15,10.15,0,15.21-.06,2.1-1.39,3.51-3.64,3.55-3.8,.06-7.61,.02-11.42,.02,0,0,0,.01,0,.02Z"/>
</svg>