<?xml version="1.0" encoding="UTF-8"?>
<svg id="OBJECTS" xmlns="http://www.w3.org/2000/svg" xmlns:xlink="http://www.w3.org/1999/xlink" viewBox="0 0 501 501">
  <defs>
    <style>
      .cls-1, .cls-2 {
        fill: #fff;
      }

      .cls-3 {
        font-family: Montserrat-Medium, 'Montserrat Medium';
        font-size: 7.41px;
        font-weight: 500;
      }

      .cls-4 {
        letter-spacing: 0em;
      }

      .cls-4, .cls-5, .cls-6, .cls-7, .cls-8, .cls-9, .cls-10, .cls-11, .cls-12 {
        fill: #061a35;
      }

      .cls-5 {
        font-size: 11.18px;
      }

      .cls-5, .cls-7, .cls-13, .cls-2, .cls-14 {
        font-weight: 700;
      }

      .cls-5, .cls-7, .cls-2 {
        font-family: Montserrat-Bold, 'Montserrat Bold';
      }

      .cls-6 {
        letter-spacing: 0em;
      }

      .cls-7 {
        font-size: 6.56px;
      }

      .cls-15 {
        fill: #d8b298;
      }

      .cls-16 {
        stroke-width: 2.62px;
      }

      .cls-16, .cls-17, .cls-18, .cls-19, .cls-20, .cls-21, .cls-22, .cls-23, .cls-24, .cls-25, .cls-26, .cls-27 {
        fill: none;
      }

      .cls-16, .cls-17, .cls-18, .cls-19, .cls-20, .cls-21, .cls-22, .cls-24, .cls-25, .cls-27 {
        stroke-linecap: round;
        stroke-linejoin: round;
      }

      .cls-16, .cls-19, .cls-25 {
        stroke: #061a35;
      }

      .cls-17 {
        stroke: #6a3e3e;
        stroke-width: .93px;
      }

      .cls-28 {
        fill: #23101a;
      }

      .cls-29 {
        fill: #e8c1a5;
      }

      .cls-18 {
        stroke-width: .47px;
      }

      .cls-18, .cls-21, .cls-27 {
        stroke: #03002e;
      }

      .cls-30 {
        letter-spacing: -.01em;
      }

      .cls-30, .cls-31 {
        fill: #c94143;
      }

      .cls-32 {
        letter-spacing: -.04em;
      }

      .cls-13 {
        font-size: 22.57px;
      }

      .cls-13, .cls-14 {
        fill: #03002e;
        font-family: Montserrat-ExtraBold, 'Montserrat ExtraBold';
      }

      .cls-19, .cls-22 {
        stroke-width: 5.71px;
      }

      .cls-20 {
        stroke-width: 1.64px;
      }

      .cls-20, .cls-24 {
        stroke: #ea755e;
      }

      .cls-33 {
        fill: #321b25;
      }

      .cls-34 {
        letter-spacing: 0em;
      }

      .cls-21 {
        stroke-width: .45px;
      }

      .cls-8 {
        letter-spacing: .01em;
      }

      .cls-9 {
        font-family: Montserrat-Regular, 'Montserrat Regular';
        font-size: 4.5px;
      }

      .cls-35 {
        fill: #fdd43c;
      }

      .cls-22 {
        stroke: #fdfeff;
      }

      .cls-36 {
        clip-path: url(#clippath);
      }

      .cls-37 {
        letter-spacing: -.08em;
      }

      .cls-10 {
        letter-spacing: 0em;
      }

      .cls-38 {
        letter-spacing: .03em;
      }

      .cls-39 {
        letter-spacing: -.05em;
      }

      .cls-40 {
        fill: #a5353b;
      }

      .cls-41 {
        fill: #705854;
      }

      .cls-2 {
        font-size: 9.7px;
      }

      .cls-42 {
        letter-spacing: 0em;
      }

      .cls-43 {
        letter-spacing: -.08em;
      }

      .cls-44 {
        letter-spacing: 0em;
      }

      .cls-24 {
        stroke-width: 1.85px;
      }

      .cls-25, .cls-26 {
        stroke-width: .87px;
      }

      .cls-45 {
        letter-spacing: 0em;
      }

      .cls-14 {
        font-size: 17.53px;
      }

      .cls-46 {
        fill: #ececec;
      }

      .cls-26 {
        stroke: #ececec;
        stroke-miterlimit: 10;
      }

      .cls-27 {
        stroke-width: .56px;
      }

      .cls-12 {
        letter-spacing: -.04em;
      }
    </style>
    <clipPath id="clippath">
      <rect class="cls-23" width="501" height="501"/>
    </clipPath>
  </defs>
  <g class="cls-36">
    <g>
      <path class="cls-40" d="M472.74,299.39c-1.27-3.31-3.52-6.15-5.89-8.79-7.92-8.78-18.1-17.37-28.37-23.25-25-14.3-49.03-30.27-73.58-45.37-10.59-6.52-23.31-8.6-35.36-5.73l-38.55-.46c.74-.81,1.46-1.62,2.11-2.4,2.93-3.49,5.25-6.92,7-9.81,2.61-4.33,4.28-9.16,4.92-14.17l2.1-16.45c1.43-1.5,2.93-2.92,4.5-4.26,3.57-3.05,7.65-5.91,9.48-10.23,1.24-2.94,1.29-6.23,1.16-9.41-.08-2.09-.26-4.27-1.32-6.08-1.71-2.94-5.56-4.24-8.88-3.47-.24,.05-.46,.14-.69,.21l.09-.69c.59-1.34,1.06-2.72,1.42-4.14,1.17,.4,2.33,.81,3.49,1.24,2.93,1.07,5.92-1.57,6.06-5.43,.16-4.29-.11-8.54-1.02-12.67-.48-2.2-1.87-3.9-3.63-4.36-.38-.1-.76-.19-1.14-.29-.19-1.57-.45-3.13-.78-4.66-1.15-5.26-3.21-10.13-5.37-14.86-2.74-5.99-5.73-11.92-9.8-16.58-3.8-4.36-8.43-7.45-13.2-9.88-9.11-4.64-18.97-13.65-28.8-13.5-11.46,.17-22.88,10.35-33,17.12-8.24,5.52-15.71,13.31-20.35,23.48-2.03,4.45-3.49,9.29-4.72,14.18l-.99,4.85c-.62,.17-1.24,.33-1.86,.5-.95,.26-1.94,.56-2.67,1.38-.64,.72-1,1.77-1.31,2.78-1.06,3.46-1.56,6.57-1.85,9.78-.38,4.21,2.72,7.55,5.96,6.47,.33-.11,.66-.21,.99-.32,.47,2.15,1.18,4.24,2.21,6.2-.68-.34-1.4-.62-2.15-.79-3.31-.77-7.16,.53-8.88,3.47-1.06,1.81-1.23,3.99-1.32,6.08-.13,3.19-.08,6.48,1.16,9.41,1.83,4.33,5.91,7.18,9.48,10.23,2.67,2.29,5.15,4.81,7.4,7.51l2.22,17.47s-.11-.62,.33,2.05c.43,2.6,3.49,8.36,10.68,16.96-.37,.31-.45,.86-.16,1.26,.03,.04,.57,.76,1.58,1.91l-51.55,.72c-.05-.79-.11-1.59-.2-2.38-1.42-13.05-8.1-25.98-18.32-35.49-4.96-4.62-10.64-8.4-16.13-12.05-1.52-1.01-3.02-2.01-4.49-3.02l8.57-34.22c.35-1.38,.09-2.77-.61-3.88-.66-1.07-1.73-1.89-3.04-2.22l-2.15-.54,.57-2.14c.89-.02,1.79-.04,2.68-.03,3.26,.02,5.75,.42,7.85,1.25,2.38,.94,4.27,2.54,5.2,4.4,1.35,2.7,.95,6.23,.44,9-.28,1.55,.75,3.04,2.3,3.32,.17,.03,.34,.05,.51,.05,1.35,0,2.55-.97,2.81-2.34,.66-3.65,1.15-8.37-.96-12.58-1.57-3.14-4.49-5.68-8.21-7.15-2.41-.95-5.1-1.47-8.37-1.61,.14-.13,.28-.25,.42-.39,.21-.2,.29-.47,.27-.74,3.3-2.43,6.26-5.28,8.79-8.5l5.79-7.34,4.34-4.23c.25-.04,.48-.18,.63-.41,2.69-4.22,5.03-8.7,6.96-13.31,.74-1.78,1.48-3.71,1.82-5.74,.35-2.09,.18-3.89-.52-5.34-.92-1.92-2.89-3.15-4.77-3.01-2.81,.22-4.49,3.11-5.29,4.51-.25,.43-.11,.96,.3,1.23l-.73,1.04c.25-4.15-.83-8.01-3.23-11.3-3.5-4.81-9.55-7.95-16.59-8.6-11.44-1.06-23.38,5.55-30.44,16.86-5.29,8.48-8.03,19.11-8.63,33.47-.25,6.05-.07,11.73,.52,17.06l-41.75,97.68c-1.12,2.16-7.11,14.94,1.03,27.99,1.58,2.54,3.62,4.94,6.07,7.12,5.84,5.23,13.3,8.58,21.58,9.69l42.01,5.63c-5.23,4.44-10.14,9.8-14.63,16.04-2.87,3.99-5.38,8.04-7.46,11.48-2.19,3.63-6.63,16.75-10.25,27.78l-.44,1.34c-.07,.21-.11,.42-.13,.63-.19,.15-.38,.3-.55,.46-.3,.29-.52,.62-.67,.98-2.68,3.33-3.58,8.01-2.2,12.08,.93,2.75,2.8,4.9,5.12,5.89,.04,.02,.08,.03,.12,.04,.86,2.75,2.99,4.93,5.69,5.89v17.87c0,14.2,11.55,25.76,25.76,25.76,.92,0,1.83-.05,2.72-.15v6.83c0,4.85,3.93,8.79,8.79,8.79h32.13l.14,20.15h-16.93c-8.52,0-15.43,6.91-15.43,15.43s6.91,15.43,15.43,15.43h17.14l.26,44.41h168.94l.12-44.41h15.11c8.52,0,15.43-6.91,15.43-15.43s-6.91-15.43-15.43-15.43h-15.01l.07-20.15h12.78c1.13,1.18,2.49,2.01,3.99,2.45,.84,.89,1.58,1.78,2.91,2.17,.88,.26,1.8,.27,2.72,.27,.94,0,1.94,.03,2.86-.22,.81-.23,1.51-.81,2.26-1.21,1.88-1,3.77-1.96,5.63-2.99l1.28-.7c.2-.11,.4-.24,.6-.36,1.47-.56,2.75-1.51,3.72-2.71,2.04-1.83,3.75-4.02,5.04-6.47l13.36-25.48,4.57,4.31c5.19-4,10.34-8.05,15.47-12.13,10.19-8.1,20.32-16.29,30.19-24.78,9.42-8.09,21.25-16.25,24.78-28.59,1.32-4.62,1.51-9.68-.21-14.17Zm-83.79,22.11s.06,.04,.09,.06l-7.57,8.93v-16.87l8.18,6.43c-.24,.26-.48,.53-.72,.79-.17,.19-.16,.48,.03,.65ZM132.08,171.4c5.3,3.53,10.78,7.18,15.41,11.48,9.24,8.59,15.26,20.22,16.53,31.92,.03,.29,.04,.57,.07,.86l-11.54-2.4c-11.65-2.55-23.13-4.99-29.92-6.43-.92-.19-1.41-.79-1.62-1.14-.21-.34-.53-1.05-.31-1.95l8.57-34.22c.94,.63,1.87,1.25,2.8,1.87Zm-28.89-68.04c.56-13.33,3.03-23.08,7.77-30.69,4.85-7.78,14.49-15.18,25.06-14.2,5.41,.5,9.97,2.79,12.51,6.28,1.84,2.53,2.52,5.61,2.01,8.95l-.06-.07c-2.23-2.57-5.95-3.26-8.95-1.65l-19.1,10.24c-3.33,1.78-5.84,4.78-7.01,8.36l-8.38,25.53-2.42-.61c-.44-.11-.88-.14-1.31-.13-.25-3.81-.3-7.81-.12-12Zm.35,236.12c-.36,.17-.66,.4-.91,.68-.23,.02-.46,.03-.71,.04,.62-.77,1.55-1.28,2.61-1.3-.31,.21-.64,.41-.99,.58Zm1.05,6.25c-.09,0-.18-.02-.27-.03,.19-.03,.39-.04,.58-.08,.87-.17,1.56-.72,1.96-1.44,.3-.17,.59-.36,.88-.55-.52,1.23-1.73,2.1-3.15,2.1Zm0-12.54c-3.55,0-6.62,2.04-8.13,5.01-.16-.29-.3-.6-.41-.93-.83-2.46-.11-5.44,1.75-7.24,.1-.1,.18-.21,.27-.32,.83-.49,1.92-.71,3-.58,1.39,.18,2.85,.92,4.1,2.07,.78,.72,1.31,1.44,1.58,2.14,.01,.04,.02,.08,.03,.12-.7-.17-1.43-.27-2.18-.27Zm22.74,55.64c-11.05,0-20.05-8.99-20.05-20.05v-17.75c3.72-1.15,6.43-4.62,6.43-8.72,0-1.79-.52-3.45-1.42-4.86,.58-2.04,.51-4.2-.22-6.13-.58-1.53-1.6-2.98-3.04-4.31-2.15-1.98-4.65-3.21-7.25-3.54-.36-.05-.73-.07-1.09-.08,4.65-14.09,7.7-22.38,9.06-24.62,2.02-3.34,4.46-7.28,7.21-11.1,4.71-6.55,9.88-12.07,15.41-16.45-1.43,1.56-2.31,3.64-2.31,5.93v111.5c-.89,.12-1.8,.19-2.72,.19Z"/>
      <g>
        <g>
          <g>
            <g>
              <g>
                <polygon class="cls-33" points="248.49 214.57 244.97 214.57 160.33 215.76 162.26 504.61 244.97 504.61 248.49 504.61 331.2 504.61 332.12 215.58 248.49 214.57"/>
                <path class="cls-17" d="M215.79,234.74c.1,2.08,.86,4.08,1.85,5.91,3.67,6.75,10.89,11.42,18.55,12.02"/>
              </g>
              <g>
                <g>
                  <path class="cls-19" d="M95.11,348.08v19.88c0,12.65,10.25,22.9,22.9,22.9h0c12.65,0,22.9-10.25,22.9-22.9"/>
                  <g>
                    <path class="cls-22" d="M95.05,342c-1.65,.32-3.34,.28-5.01,.1-.85-.09-1.7-.22-2.48-.56-1.73-.74-2.94-2.4-3.54-4.18-1.19-3.5-.19-7.64,2.47-10.21"/>
                    <path class="cls-19" d="M89,341.5c0,3.46,2.81,6.27,6.27,6.27s6.27-2.81,6.27-6.27-2.81-6.27-6.27-6.27-6.27,2.81-6.27,6.27Z"/>
                  </g>
                </g>
                <g>
                  <g>
                    <g>
                      <path class="cls-29" d="M150.12,89.79l-11.59,14.7c-2.86,3.63-6.26,6.8-10.08,9.41l-7.87,5.38,9.77-11.86,10.7-8.4,9.06-9.23Z"/>
                      <path class="cls-29" d="M143.18,77.43l6.5-9.29s5.87-5.35,7.09,.73c1.22,6.07-2.5,11.76-2.5,11.76l-4.08,8.66-1.29,2.19-6.72-.21,.47-7.84,.53-6Z"/>
                      <path class="cls-29" d="M152.73,86.15l-11.56-13.33c-2.23-2.57-5.95-3.26-8.95-1.65l-19.1,10.24c-3.32,1.78-5.84,4.78-7.01,8.36l-16.22,49.41,27.82,7.14,7.4-27.71c1.55-5.9,5.17-9.11,10.16-12.63l13.97-13.61,3.51-6.21Z"/>
                      <path class="cls-24" d="M117.06,99.17c-1.4,1.16-1.77,3.33-1,4.97,.78,1.65,2.55,2.71,4.37,2.82,1.82,.11,3.63-.66,4.96-1.91,1.29-1.21,2.16-2.87,2.43-4.62,.46-3.06-.94-6.18-3.11-8.39-2.17-2.21-5.02-3.61-7.93-4.67"/>
                      <path class="cls-24" d="M128.03,102.86c1.41,0,2.67-.94,3.56-2.04,1.47-1.83,2.19-4.23,2.01-6.57-.18-2.34-1.24-4.59-2.9-6.25-2.16-2.16-5.19-3.27-7.33-5.45"/>
                      <path class="cls-24" d="M132.63,100.22c2.57-.94,4.83-2.79,6.12-5.21,1.28-2.42,1.54-5.4,.53-7.95-1.23-3.13-4.1-5.28-6.83-7.25-1.04-.75-2.07-1.5-3.11-2.25"/>
                      <path class="cls-24" d="M138.85,96.86c2.03-1.27,3.96-2.76,5.35-4.71,1.39-1.95,2.19-4.4,1.8-6.76-.41-2.46-2.04-4.56-3.92-6.2-1.87-1.65-4.02-2.95-5.92-4.57"/>
                      <path class="cls-24" d="M148.51,92c2.67-4.18,4.98-8.59,6.89-13.17,.75-1.79,1.44-3.62,1.76-5.54,.27-1.6,.27-3.32-.44-4.78-.71-1.47-2.24-2.61-3.86-2.49-2.11,.16-3.5,2.21-4.56,4.05"/>
                      <path class="cls-24" d="M128.82,113.05c-1.67,1.58-3.52,2.99-5.64,3.87-2.12,.88-4.52,1.2-6.73,.59"/>
                    </g>
                    <path class="cls-33" d="M95.31,114.67l31.05,7.81c1.31,.33,2.38,1.15,3.04,2.22,.7,1.12,.96,2.51,.61,3.88l-18.63,74.34c-.23,.91,.09,1.61,.31,1.96,.21,.34,.71,.94,1.62,1.14,9.1,1.93,26.61,5.66,41.67,9.03,29.06,6.49,29.4,6.95,30.83,8.88,1.31,1.78,2.52,3.55,3.59,5.26,6.97,11.18,8.84,21.16,5.55,29.67-4.66,12.05-17.92,15.93-18.48,16.09-.66,.19-1.36,.24-2.04,.15l-98.81-13.24c-8.28-1.11-15.74-4.46-21.58-9.69-2.44-2.19-4.48-4.58-6.07-7.12-8.14-13.05-2.15-25.84-1.03-27.99l42.51-99.47c.97-2.27,3.45-3.51,5.85-2.9Z"/>
                    <g>
                      <line class="cls-17" x1="99.47" y1="203.84" x2="158" y2="215.99"/>
                      <path class="cls-17" d="M96.84,121.84c9.45,1.54,18.73,4.12,27.61,7.69"/>
                    </g>
                  </g>
                  <g>
                    <path class="cls-22" d="M143.84,74.54c2.42-10.9-5.74-18.69-16.86-19.73-11.11-1.04-21.84,6.06-27.75,15.53-5.91,9.47-7.74,20.93-8.2,32.08-.74,17.56,2.06,36.32,13.44,49.71,9.79,11.52,24.58,17.55,35.65,27.84,9.46,8.8,16.03,20.86,17.43,33.71,1.4,12.85-2.6,26.35-11.41,35.81-6.36,6.84-14.79,11.32-22.37,16.78-7.21,5.19-13.28,11.72-18.45,18.91-2.62,3.65-5.01,7.45-7.33,11.29-2.5,4.14-8.89,23.9-10.42,28.54"/>
                    <path class="cls-22" d="M111.95,99.07c-1.42,1.19-2.17,2.58-2.75,3.59-.57,1.01-.68,2.21-.74,3.37-.06,1.37-.06,2.77,.33,4.09,1.02,3.43,4.49,5.63,7.98,6.38,3.5,.76,7.12,.38,10.7,.41,3.02,.02,6.07,.34,8.88,1.45,2.8,1.11,5.35,3.08,6.7,5.77,1.65,3.28,1.36,7.18,.7,10.79"/>
                  </g>
                </g>
                <path class="cls-22" d="M95.44,341.24c1.79-.84,3.34-2.23,4.24-3.99,.9-1.76,1.1-3.9,.4-5.74-.47-1.25-1.33-2.32-2.31-3.22-1.57-1.46-3.55-2.54-5.67-2.81s-4.4,.32-5.96,1.8"/>
              </g>
            </g>
            <g>
              <g>
                <g>
                  <g>
                    <path class="cls-29" d="M253.36,246.6h-15.82c-7.41,0-13.41-6-13.41-13.41l1.85-36.56h38.93l1.85,36.56c0,7.41-6,13.41-13.41,13.41Z"/>
                    <path class="cls-29" d="M312.95,148.23c-.08-2.09-.26-4.27-1.32-6.08-1.71-2.94-5.56-4.24-8.88-3.47-.24,.05-.46,.14-.69,.21l1.99-15.53v-.03s0-.03,0-.03c-.02-.1-2.4-10.39-10.4-20.54-7.39-9.37-21.21-20.54-45.14-20.54h0s-.69,0-1.07,0c-.37,0-1.03,0-1.03,0-23.92,0-37.75,11.17-45.14,20.54-8,10.15-10.38,20.44-10.4,20.54v.03s2.13,16.84,2.13,16.84c-1.03-.69-2.16-1.21-3.37-1.49-3.31-.77-7.16,.53-8.88,3.47-1.06,1.81-1.23,3.99-1.32,6.08-.13,3.19-.08,6.48,1.16,9.41,1.83,4.33,5.91,7.18,9.48,10.23,2.67,2.29,5.15,4.81,7.4,7.51l2.22,17.47s-.11-.62,.33,2.05c.44,2.67,3.65,8.67,11.27,17.66,7.03,8.3,19.02,18.67,36.2,20.9h.19s.11,0,.11,0c17.14-2.23,29.04-12.6,36-20.9,2.93-3.49,5.25-6.92,7-9.81,2.61-4.33,4.28-9.16,4.92-14.17l2.1-16.45c1.43-1.5,2.93-2.92,4.5-4.26,3.57-3.05,7.65-5.91,9.48-10.23,1.24-2.94,1.29-6.23,1.16-9.41Z"/>
                  </g>
                  <path class="cls-41" d="M298.86,105.97c-.38-.81-.74-1.63-1.04-2.48-2.46-6.92-7.05-13.07-13.01-17.36-1.33-.96-2.73-1.83-4.13-2.69-2.58-1.6-5.49-2.95-8.3-4.14-14.54-6.12-31.33-6.63-46.27-1.61-6.72,2.26-13.17,5.65-18.13,10.72-2.68,2.74-4.89,6.01-6.34,9.56-.05,.05-.11,.1-.16,.15-1.3,1.24-2.61,2.48-3.81,3.82-6.27,6.96-9.32,16.53-8.82,25.83,.24,4.46,1.21,8.83,3.47,12.7,2.49,4.24,3.75,8.95,4.8,13.74,1.3,5.96,1.99,12.05,2.03,18.14,0,.82,.69,1.43,1.51,1.41,.03,0,.06,0,.09,0,.79-.01,1.44-.61,1.44-1.4,.08-8.78-.24-17.57-.97-26.32-.41-4.87-1.14-10.35,.89-14.95,.32-.74,.72-1.48,1.39-1.93,.16-.11,.34-.19,.53-.2,.38-.01,1.12,.53,1.55,.66,.77,.22,1.56,.4,2.35,.53,1.52,.25,3.07,.33,4.61,.2,1.04-.08,2.19-.21,3.03,.42,.48,.36,.77,.91,1.07,1.42,4.24,7.13,15.22,9,21.58,3.67,2.75-2.3,5.07-5.84,8.66-5.94,2.26-.07,4.27,1.32,6.24,2.42,4.18,2.34,8.95,3.61,13.74,3.66,3.5,.04,7.1-.61,10.07-2.46,1.99-1.25,2.91-3.18,5.12-3.85,1.73-.52,3.54-.97,5.34-.78,4.24,.46,4.7,3.73,5.03,7.29,.31,3.28-.03,6.57-.3,9.84-.73,8.75-1.05,17.54-.97,26.32,0,.79,.66,1.38,1.44,1.4,.03,0,.06,0,.09,0,.82,.02,1.5-.59,1.51-1.41,.04-6.1,.72-12.19,2.03-18.14,1.05-4.79,2.31-9.5,4.8-13.74,2.27-3.86,3.23-8.24,3.47-12.7,.04-.65,.05-1.3,.05-1.94,0-4.06-.66-8.12-1.97-11.96-.95-2.8-2.47-5.28-3.7-7.89Z"/>
                </g>
                <g>
                  <g>
                    <path class="cls-24" d="M211.29,212.58s14.12,19.06,36.2,20.9"/>
                    <g>
                      <g>
                        <path class="cls-24" d="M298.78,160.2c.28-4.46,.84-9.11,3.32-12.82,.88-1.33,2.07-2.55,3.59-3.01,1.53-.46,3.42,.06,4.15,1.48"/>
                        <path class="cls-24" d="M303.77,146.2c.2,0,.37,.14,.51,.28,1.27,1.23,1.81,3.06,1.78,4.82s-.57,3.48-1.22,5.12"/>
                      </g>
                      <g>
                        <path class="cls-24" d="M194.4,160.2c-.28-4.46-.84-9.11-3.32-12.82-.88-1.33-2.07-2.55-3.59-3.01-1.53-.46-3.42,.06-4.15,1.48"/>
                        <path class="cls-24" d="M189.4,146.2c-.2,0-.37,.14-.51,.28-1.27,1.23-1.81,3.06-1.78,4.82,.03,1.76,.57,3.48,1.22,5.12"/>
                      </g>
                    </g>
                  </g>
                  <g>
                    <g>
                      <path class="cls-24" d="M244.83,171.43c.1,5.79-.5,14.36,1.24,16.03,.41,.39,.9,.68,1.41,.9,2.49,1.1,5.22,.58,7.52-.72,.42-.23,.83-.51,1.1-.91"/>
                      <g>
                        <g>
                          <path class="cls-24" d="M255.45,210.49c3.77-.97,7.47-2.37,10.65-4.59,3.19-2.23,5.84-5.34,7.08-9.02"/>
                          <path class="cls-24" d="M270.83,196.38c.84-.29,1.79-.27,2.62,.07,.83,.34,1.52,.99,1.91,1.79"/>
                        </g>
                        <path class="cls-24" d="M269.41,213.09c1.19-1.75,3.12-2.98,5.2-3.32"/>
                      </g>
                    </g>
                    <g>
                      <g>
                        <g>
                          <path class="cls-28" d="M217.81,167.44c0,5.37,2.85,9.71,6.36,9.71s6.36-4.35,6.36-9.71-2.85-9.71-6.36-9.71-6.36,4.35-6.36,9.71Z"/>
                          <path class="cls-41" d="M235.28,154.07c1.33,.92,2.67,2.06,3.2,3.46,.53,1.4-.16,2.95-1.5,2.95-.7,0-1.4-.43-2.03-.71-7.47-3.35-15.63-4.99-24.24-5.3-.52-.02-1.08-.06-1.53-.32-1.74-1.04,.16-3.17,1.44-3.98,1.93-1.21,4.88-1.32,7.25-1.37,6.06-.11,12.23,1.71,17.4,5.26Z"/>
                        </g>
                        <ellipse class="cls-15" cx="223.71" cy="183.75" rx="6.69" ry="2.39"/>
                      </g>
                      <g>
                        <g>
                          <ellipse class="cls-28" cx="269.24" cy="167.44" rx="6.36" ry="9.71"/>
                          <path class="cls-41" d="M277.21,143.18c1.61,.08,3.36,.34,4.54,1.25s1.42,2.6,.28,3.3c-.59,.37-1.42,.37-2.1,.47-8.12,1.09-15.91,4-23.4,8.27-.45,.26-.95,.52-1.47,.53-2.03,.04-1.54-2.77-.87-4.14,1-2.04,3.45-3.69,5.44-4.98,5.09-3.29,11.3-5,17.56-4.7Z"/>
                        </g>
                        <ellipse class="cls-15" cx="268.9" cy="183.75" rx="6.69" ry="2.39"/>
                      </g>
                    </g>
                  </g>
                </g>
              </g>
              <g>
                <g>
                  <path class="cls-33" d="M187.78,125.11c17.73-2.7,35.54-4.54,53.38-5.51,14-.76,28.07-.97,42.03,.92,6.85,.93,13.66,2.37,20.34,4.5,4.42,1.41,4.63,.97,4.39-4.77-.17-4.17-.49-8.34-1.37-12.38-1.15-5.26-3.21-10.13-5.37-14.86-2.74-5.99-5.73-11.92-9.8-16.58-3.8-4.36-8.43-7.45-13.2-9.88-9.11-4.64-18.97-13.65-28.8-13.5-11.46,.17-22.88,10.35-33,17.12-8.24,5.52-15.71,13.31-20.35,23.48-2.03,4.45-3.49,9.29-4.72,14.18l-3.53,17.29Z"/>
                  <path class="cls-17" d="M249.49,53.55c8.36,2.02,17.92,8.68,21.76,12.48,6.15,6.1,11.66,12.91,15.78,20.53,4.13,7.62,6.52,14.26,7.02,22.9"/>
                  <path class="cls-17" d="M249.91,53.88c4.49,3.01,9.85,7.53,13.27,11.71,5.48,6.71,10.23,14.07,13.53,22.08,3.3,8.01,4.17,10.81,3.76,19.47"/>
                  <path class="cls-17" d="M248.94,53.64c-11.38,3.4-17.58,8.59-21.42,12.39-6.15,6.1-11.66,12.91-15.78,20.53-4.13,7.62-6.52,14.26-7.02,22.9"/>
                  <path class="cls-17" d="M248.66,53.91c-7.95,3.4-9.64,7.5-13.05,11.69-5.48,6.71-10.23,14.07-13.53,22.08-3.3,8.01-4.17,10.81-3.76,19.47"/>
                  <line class="cls-17" x1="249.37" y1="53.58" x2="249.35" y2="108.58"/>
                </g>
                <g>
                  <path class="cls-28" d="M188.59,133.58c38.65-12.92,80.07-12.33,118.47,1.7,2.93,1.07,5.92-1.57,6.06-5.43,.16-4.29-.11-8.54-1.02-12.67-.48-2.2-1.87-3.9-3.63-4.36-39.43-10.26-80.69-10.48-120.01,.36-.95,.26-1.94,.56-2.67,1.38-.64,.72-1,1.77-1.31,2.78-1.06,3.46-1.56,6.57-1.85,9.78-.38,4.21,2.72,7.55,5.96,6.47Z"/>
                  <g>
                    <g>
                      <path class="cls-17" d="M195.3,129.15c-.96-5.16-1.31-10.57,.18-15.61"/>
                      <path class="cls-17" d="M209.42,110.67c-1.14,4.53-1.22,9.32-.24,13.89"/>
                      <path class="cls-17" d="M223.41,109.11c-1.2,4.42-1.54,9.07-.99,13.61"/>
                      <path class="cls-17" d="M237.31,107.81c-1.84,4.36-2.47,9.23-1.78,13.91"/>
                    </g>
                    <g>
                      <path class="cls-17" d="M299.33,112.49c1.55,5.58,1.25,11.52-.89,16.9"/>
                      <path class="cls-17" d="M287.36,110.07c1.16,5.06,.9,11.64-1.16,16.42"/>
                      <path class="cls-17" d="M273.59,108.42c.26,2.49,.51,6.82,.41,9.32-.1,2.5-.57,4.09-1.69,6.32"/>
                      <path class="cls-17" d="M261.04,108.2c1.34,4.61,.71,9.76-1.7,13.91"/>
                    </g>
                    <line class="cls-17" x1="249.12" y1="107.98" x2="248.1" y2="121.32"/>
                  </g>
                </g>
              </g>
            </g>
          </g>
          <g>
            <g>
              <g>
                <rect class="cls-1" x="120.73" y="267.54" width="251.42" height="141.65" rx="8.79" ry="8.79"/>
                <path class="cls-46" d="M171.33,278.12v-2.92c0-4.29-3.47-7.76-7.76-7.76h-20.76c-4.29,0-7.76,3.47-7.76,7.76v2.92h36.28Z"/>
                <rect class="cls-46" x="120.73" y="278.11" width="251.42" height="17.36"/>
                <g>
                  <g>
                    <rect class="cls-46" x="334.42" y="270.54" width="8.79" height="8.11"/>
                    <line class="cls-21" x1="336.99" y1="274.6" x2="340.63" y2="274.6"/>
                  </g>
                  <g>
                    <rect class="cls-46" x="344.48" y="270.54" width="8.79" height="8.11"/>
                    <g>
                      <rect class="cls-21" x="346.28" y="274.41" width="3.03" height="2.78"/>
                      <polyline class="cls-18" points="347.7 274.36 347.7 272.46 350.99 272.46 350.99 275.75 349.32 275.75"/>
                    </g>
                  </g>
                  <g>
                    <rect class="cls-46" x="354.78" y="270.54" width="8.79" height="8.11"/>
                    <g>
                      <line class="cls-27" x1="361.09" y1="276.71" x2="357.48" y2="272.94"/>
                      <line class="cls-27" x1="357.48" y1="276.71" x2="361.09" y2="272.94"/>
                    </g>
                  </g>
                </g>
                <rect class="cls-1" x="134.57" y="281.96" width="198.8" height="10.26" rx="4.13" ry="4.13"/>
                <text class="cls-3" transform="translate(145.2 289.23)"><tspan class="cls-4" x="0" y="0">h</tspan><tspan class="cls-11" x="4.08" y="0">ttps://</tspan><tspan class="cls-8" x="22.75" y="0">ww</tspan><tspan class="cls-12" x="33.83" y="0">w</tspan><tspan class="cls-11" x="38.99" y="0">.</tspan><tspan class="cls-31" x="40.53" y="0">falsepag</tspan><tspan class="cls-30" x="66.58" y="0">e</tspan><tspan class="cls-10" x="70.2" y="0">.</tspan><tspan class="cls-6" x="71.74" y="0">c</tspan><tspan class="cls-11" x="75.01" y="0">om</tspan></text>
                <g>
                  <line class="cls-25" x1="141.82" y1="288.78" x2="138.06" y2="284.56"/>
                  <line class="cls-25" x1="138.06" y1="288.78" x2="141.82" y2="284.56"/>
                </g>
                <g>
                  <rect class="cls-46" x="175.44" y="341" width="67.87" height="9.98" rx="4.04" ry="4.04"/>
                  <text class="cls-9" transform="translate(179.47 348.91)"><tspan x="0" y="0">************</tspan></text>
                </g>
                <g>
                  <rect class="cls-46" x="175.44" y="360.74" width="67.87" height="9.98" rx="4.04" ry="4.04"/>
                  <text class="cls-9" transform="translate(179.47 368.64)"><tspan x="0" y="0">*****</tspan></text>
                </g>
                <g>
                  <rect class="cls-31" x="196.06" y="375.2" width="26.69" height="14.4" rx="3.98" ry="3.98"/>
                  <text class="cls-2" transform="translate(198.33 385.5)"><tspan x="0" y="0">BUY</tspan></text>
                </g>
                <rect class="cls-26" x="167.41" y="299.21" width="159.71" height="100.44" rx="6.81" ry="6.81"/>
                <text class="cls-5" transform="translate(181.52 321.7)"><tspan class="cls-37" x="0" y="0">P</tspan><tspan class="cls-43" x="5.01" y="0">A</tspan><tspan x="10.96" y="0">Y</tspan><tspan class="cls-32" x="17.01" y="0"> </tspan><tspan x="18.98" y="0">WITH</tspan><tspan class="cls-39" x="43.94" y="0"> </tspan><tspan class="cls-32" x="45.8" y="0">Y</tspan><tspan x="51.44" y="0">OUR </tspan><tspan class="cls-34" x="74.75" y="0">C</tspan><tspan x="81.28" y="0">ARD</tspan></text>
                <text class="cls-7" transform="translate(179.05 338.4)"><tspan class="cls-45" x="0" y="0">C</tspan><tspan x="3.83" y="0">ARD NUMBER</tspan></text>
                <text class="cls-7" transform="translate(179.05 359.02)"><tspan x="0" y="0">SECURI</tspan><tspan class="cls-38" x="19.6" y="0">T</tspan><tspan x="23.05" y="0">Y K</tspan><tspan class="cls-42" x="31.54" y="0">E</tspan><tspan x="34.79" y="0">Y</tspan></text>
                <g>
                  <rect class="cls-35" x="251.83" y="338.81" width="66.49" height="37.71"/>
                  <g>
                    <rect class="cls-11" x="293" y="343.7" width="18.56" height="15.46"/>
                    <g>
                      <line class="cls-16" x1="258.59" y1="366.56" x2="309.11" y2="366.56"/>
                      <line class="cls-16" x1="258.59" y1="371.64" x2="309.11" y2="371.64"/>
                    </g>
                  </g>
                </g>
              </g>
              <g>
                <path class="cls-19" d="M140.31,388.7c15.5-7.37,26.22-23.17,26.22-41.47,0,0-4.61,9.93-18.73,8.56,0,0,13.48,9.24,12.21,14.83"/>
                <path class="cls-11" d="M164.1,358.09c.41-1.03,.83-2.13,.62-3.22-.03-.17-.09-.34-.24-.43-.15-.08-.33-.04-.49,0-3.62,.93-7.31,1.55-11.04,1.87-.13,.01-.28,.04-.34,.15-.07,.13,.03,.29,.12,.4,1.1,1.37,2.21,2.73,3.31,4.1,.85,1.05,1.81,2.84,3.2,3.23,3.05,.86,4.09-4.19,4.86-6.1Z"/>
              </g>
            </g>
            <g>
              <g>
                <g>
                  <path class="cls-29" d="M377.85,343.57l-10.03,14.38-3.93,3.36c-.66,.18-1.34,.3-2.01,.36-2.11,.18-4.22-.14-6.33-.29-2.34-.17-4.7-.13-7.04-.06-3.13,.09-6.34,.26-9.18,1.58-.78,.36-1.53,.81-2.16,1.4-1.04,.95-1.73,2.23-2.27,3.53-.69,1.64-1.17,3.37-1.43,5.14-.2,1.4-.15,3.07,1,3.89,.86,.61,2.04,.5,3.06,.2,1.64-.48,3.16-1.35,4.39-2.54,1.2-1.15,2.31-2.69,3.97-2.83,.83-.07,1.64,.23,2.42,.53,.65,.25,1.31,.5,1.96,.75l-1.84,1.57-9.12,10.81c-1.19,.66-2.39,1.32-3.58,1.99-2.22,1.23-4.95,2.13-6.66,4.1-1.24,1.43-.97,3.72,.35,5.01,.57,.56,1.29,.92,1.88,1.45,.61,.55,.85,1.13,1.24,1.83,.9,1.62,2.45,2.88,4.25,3.37,.91,.25,1.77,.62,2.56,1.13,.61,.39,1.26,.72,1.97,.85,.39,.07,.8,.08,1.16,.25,.73,.36,.98,1.25,1.3,2,.37,.85,.95,1.61,1.65,2.22,.61,.52,1.39,.75,1.98,1.26,1.29,1.1,2.02,2.49,3.77,3.01,.88,.26,1.8,.27,2.72,.27,.94,0,1.94,.03,2.86-.22,.81-.23,1.51-.81,2.26-1.21,1.88-1,3.77-1.96,5.63-2.99l1.28-.7c3.99-2.19,7.24-5.51,9.35-9.54l16.08-30.68s7.77-8.54,8.36-8.86l-21.86-16.31Z"/>
                  <path class="cls-20" d="M345.41,393.26c-2.49,1.51-4.78,3.41-7.51,4.42-2.73,1.01-6.16,.9-8.14-1.24"/>
                  <path class="cls-20" d="M353.5,399.72c-2.49,1.51-4.78,3.41-7.51,4.42-2.07,.77-4.05,.97-6.16,.41-1.79-.48-3.58-1.09-5.11-2.14-1.53-1.05-2.8-2.59-3.2-4.4"/>
                  <path class="cls-20" d="M361.6,406.18c-2.49,1.51-4.78,3.41-7.51,4.42-4.26,1.58-8.53,0-10.71-4.01-.35-.64-.68-1.38-1.36-1.65"/>
                  <path class="cls-20" d="M352.05,370.45c-1.89,2.23-3.81,4.45-5.74,6.65"/>
                </g>
                <g>
                  <path class="cls-33" d="M358.63,345.62l34.56,32.63c5.19-4,10.34-8.05,15.47-12.13,10.19-8.1,20.32-16.29,30.19-24.78,9.42-8.09,21.25-16.25,24.78-28.59,1.32-4.62,1.51-9.68-.21-14.17-1.27-3.31-3.52-6.15-5.89-8.79-7.92-8.78-18.1-17.37-28.37-23.25-25-14.3-49.03-30.27-73.58-45.37-11.14-6.85-24.63-8.81-37.21-5.26-8.09,2.28-17.71,6.05-21.62,10.21,0,0-14.93,14.48,9.53,34.85l74.44,58.6-22.1,26.07Z"/>
                  <path class="cls-17" d="M379.95,320.34c6.25-6.78,12.28-13.75,18.08-20.91"/>
                </g>
              </g>
              <g>
                <path class="cls-17" d="M322.38,215.87c-12.26,12.83-16.99,32.38-11.97,49.4"/>
                <path class="cls-17" d="M369.39,343.58c1.8,.93,3.29,2.36,4.76,3.76,7.02,6.74,14.05,13.47,21.07,20.21"/>
              </g>
            </g>
          </g>
        </g>
        <g>
          <g>
            <path class="cls-1" d="M393.49,160.78h-51.08c-5.35,0-9.69,4.34-9.69,9.69v7.88c0,.24,.02,.48,.04,.72,.04,2.78-.23,5.63-1.4,8.15-.73,1.58-1.8,2.98-2.87,4.35-1.06,1.36-2.16,2.77-3.59,3.76-.55,.38-2.72,1.06-1.82,1.86,.82,.73,3.78,.03,4.79-.1,3.33-.42,6.61-1.33,9.68-2.68,3.4-1.5,6.59-3.59,9.05-6.38h46.89c5.35,0,9.69-4.34,9.69-9.69v-7.88c0-5.35-4.34-9.69-9.69-9.69Z"/>
            <text class="cls-14" transform="translate(344.25 181.04)"><tspan x="0" y="0">EASY</tspan></text>
          </g>
          <g>
            <path class="cls-1" d="M346.43,460.2H144.86c-8.52,0-15.43-6.91-15.43-15.43h0c0-8.52,6.91-15.43,15.43-15.43h201.57c8.52,0,15.43,6.91,15.43,15.43h0c0,8.52-6.91,15.43-15.43,15.43Z"/>
            <text class="cls-13" transform="translate(166.97 452.58)"><tspan x="0" y="0">PHISHING ALE</tspan><tspan class="cls-44" x="133.12" y="0">R</tspan><tspan x="145.47" y="0">T</tspan></text>
          </g>
        </g>
      </g>
    </g>
  </g>
</svg>